<svg width="600" height="205" viewBox="0 0 600 205" xmlns="http://www.w3.org/2000/svg"><defs><clipPath id="satori_bc-id"><path x="0" y="0" width="600" height="205" d="M6,0 h588 a6,6 0 0 1 6,6 v193 a6,6 0 0 1 -6,6 h-588 a6,6 0 0 1 -6,-6 v-193 a6,6 0 0 1 6,-6"/></clipPath></defs><mask id="satori_om-id"><rect x="1" y="1" width="598" height="203" fill="#fff"/><path width="600" height="205" fill="none" stroke="#000" stroke-width="2" d="M1.7569999999999997,1.7569999999999997 A6,6 0 0 1 6,0 h588 a6,6 0 0 1 6,6 v193 a6,6 0 0 1 -6,6 h-588 a6,6 0 0 1 -6,-6 v-193 A6,6 0 0 1 1.7569999999999997,1.7569999999999997"/></mask><path x="0" y="0" width="600" height="205" fill="#fefefe" d="M6,0 h588 a6,6 0 0 1 6,6 v193 a6,6 0 0 1 -6,6 h-588 a6,6 0 0 1 -6,-6 v-193 a6,6 0 0 1 6,-6"/><path width="600" height="205" clip-path="url(#satori_bc-id)" fill="none" stroke="#e1e4e8" stroke-width="2" d="M1.7569999999999997,1.7569999999999997 A6,6 0 0 1 6,0 h588 a6,6 0 0 1 6,6 v193 a6,6 0 0 1 -6,6 h-588 a6,6 0 0 1 -6,-6 v-193 A6,6 0 0 1 1.7569999999999997,1.7569999999999997"/><mask id="satori_om-id-0"><rect x="21" y="21" width="558" height="23" fill="#fff"/></mask><g  ><path fill="black" d="M25.7 25.8L28.6 25.8L28.6 40L25.7 40L25.7 25.8ZM21.4 25.8L33.0 25.8L33.0 28.1L21.4 28.1L21.4 25.8ZM34.0 34.8L34.0 34.8L34.0 34.6Q34.0 33.5 34.4 32.5Q34.7 31.5 35.3 30.8Q36.0 30.0 36.9 29.6Q37.8 29.2 39.0 29.2L39.0 29.2Q40.2 29.2 41.2 29.6Q42.1 30.0 42.7 30.8Q43.4 31.5 43.7 32.5Q44.0 33.5 44.0 34.6L44.0 34.6L44.0 34.8Q44.0 36.0 43.7 37.0Q43.4 37.9 42.7 38.7Q42.1 39.4 41.2 39.8Q40.2 40.2 39.0 40.2L39.0 40.2Q37.8 40.2 36.9 39.8Q36.0 39.4 35.3 38.7Q34.7 37.9 34.4 37.0Q34.0 36.0 34.0 34.8ZM36.8 34.6L36.8 34.6L36.8 34.8Q36.8 35.5 37.0 36.1Q37.1 36.6 37.3 37.1Q37.6 37.5 38.0 37.8Q38.4 38.0 39.0 38.0L39.0 38.0Q39.6 38.0 40.1 37.8Q40.5 37.5 40.7 37.1Q41.0 36.6 41.1 36.1Q41.2 35.5 41.2 34.8L41.2 34.8L41.2 34.6Q41.2 34.0 41.1 33.4Q41.0 32.8 40.7 32.4Q40.5 31.9 40.0 31.7Q39.6 31.4 39.0 31.4L39.0 31.4Q38.4 31.4 38.0 31.7Q37.6 31.9 37.3 32.4Q37.1 32.8 37.0 33.4Q36.8 34.0 36.8 34.6ZM48.4 29.4L48.6 31.5L48.6 44.1L45.8 44.1L45.8 29.4L48.4 29.4ZM55.3 34.6L55.3 34.6L55.3 34.8Q55.3 36.0 55.0 36.9Q54.7 37.9 54.2 38.7Q53.7 39.4 52.9 39.8Q52.2 40.2 51.2 40.2L51.2 40.2Q50.2 40.2 49.5 39.8Q48.8 39.4 48.3 38.7Q47.8 38.0 47.5 37.1Q47.2 36.1 47.1 35.0L47.1 35.0L47.1 34.5Q47.2 33.4 47.5 32.4Q47.8 31.4 48.3 30.7Q48.8 30.0 49.5 29.6Q50.2 29.2 51.2 29.2L51.2 29.2Q52.2 29.2 52.9 29.6Q53.7 30 54.2 30.7Q54.7 31.4 55.0 32.4Q55.3 33.4 55.3 34.6ZM52.5 34.8L52.5 34.8L52.5 34.6Q52.5 33.9 52.3 33.4Q52.2 32.8 52.0 32.4Q51.8 31.9 51.4 31.7Q51.0 31.4 50.4 31.4L50.4 31.4Q49.9 31.4 49.5 31.6Q49.0 31.8 48.8 32.2Q48.5 32.5 48.4 33.0Q48.3 33.5 48.3 34.1L48.3 34.1L48.3 35.5Q48.3 36.2 48.5 36.8Q48.8 37.3 49.2 37.7Q49.7 38.0 50.5 38.0L50.5 38.0Q51.0 38.0 51.4 37.7Q51.8 37.5 52.0 37.1Q52.3 36.6 52.4 36.0Q52.5 35.5 52.5 34.8Z M64.2 37.7L71.3 37.7L71.3 40L64.2 40L64.2 37.7ZM62.2 25.8L65.1 25.8L65.1 40L62.2 40L62.2 25.8ZM78.5 37.6L78.5 37.6L78.5 32.9Q78.5 32.4 78.4 32.0Q78.2 31.7 77.8 31.5Q77.5 31.3 76.9 31.3L76.9 31.3Q76.5 31.3 76.1 31.4Q75.8 31.6 75.6 31.9Q75.4 32.2 75.4 32.6L75.4 32.6L72.6 32.6Q72.6 31.9 72.9 31.3Q73.2 30.7 73.8 30.2Q74.4 29.8 75.3 29.5Q76.1 29.2 77.1 29.2L77.1 29.2Q78.3 29.2 79.3 29.6Q80.2 30.1 80.8 30.9Q81.4 31.7 81.4 32.9L81.4 32.9L81.4 37.5Q81.4 38.3 81.5 38.9Q81.6 39.4 81.8 39.8L81.8 39.8L81.8 40L78.9 40Q78.7 39.6 78.6 38.9Q78.5 38.3 78.5 37.6ZM77.3 33.6L78.9 33.6L78.9 35.2L77.3 35.2Q76.8 35.2 76.4 35.3Q76.0 35.4 75.7 35.6Q75.4 35.9 75.3 36.2Q75.2 36.5 75.2 36.8L75.2 36.8Q75.2 37.2 75.4 37.5Q75.5 37.8 75.8 37.9Q76.1 38.1 76.6 38.1L76.6 38.1Q77.2 38.1 77.7 37.8Q78.1 37.6 78.4 37.2Q78.7 36.8 78.7 36.5L78.7 36.5L79.4 37.7Q79.3 38.1 79.0 38.5Q78.7 39.0 78.3 39.3Q77.9 39.7 77.3 40.0Q76.7 40.2 76.0 40.2L76.0 40.2Q74.9 40.2 74.1 39.8Q73.3 39.4 72.8 38.7Q72.4 37.9 72.4 37.0L72.4 37.0Q72.4 36.2 72.7 35.6Q73.0 34.9 73.6 34.5Q74.2 34.0 75.1 33.8Q76.0 33.6 77.3 33.6L77.3 33.6ZM86.1 29.4L86.3 31.7L86.3 40L83.5 40L83.5 29.4L86.1 29.4ZM85.9 34.3L85.9 34.3L85.1 34.3Q85.1 33.2 85.4 32.2Q85.7 31.3 86.3 30.6Q86.8 30.0 87.6 29.6Q88.3 29.2 89.3 29.2L89.3 29.2Q90.0 29.2 90.6 29.5Q91.2 29.7 91.7 30.1Q92.1 30.6 92.4 31.4Q92.6 32.1 92.6 33.3L92.6 33.3L92.6 40L89.8 40L89.8 33.3Q89.8 32.5 89.6 32.2Q89.4 31.8 89.0 31.6Q88.6 31.4 88.1 31.4L88.1 31.4Q87.5 31.4 87.1 31.7Q86.7 31.9 86.4 32.3Q86.1 32.7 86 33.2Q85.9 33.7 85.9 34.3ZM101.1 31.9L101.4 29.4L104.0 29.4L104.0 39.6Q104.0 41.1 103.3 42.1Q102.7 43.1 101.5 43.6Q100.4 44.2 98.9 44.2L98.9 44.2Q98.2 44.2 97.5 44.0Q96.8 43.8 96.1 43.4Q95.4 43.1 95.0 42.5L95.0 42.5L96.2 40.8Q96.7 41.4 97.3 41.7Q98.0 42.0 98.8 42.0L98.8 42.0Q99.5 42.0 100.1 41.8Q100.6 41.5 100.9 41.0Q101.1 40.4 101.1 39.7L101.1 39.7L101.1 31.9ZM94.3 34.8L94.3 34.8L94.3 34.6Q94.3 33.4 94.6 32.4Q94.9 31.4 95.5 30.7Q96.0 30.0 96.8 29.6Q97.6 29.2 98.6 29.2L98.6 29.2Q99.6 29.2 100.4 29.6Q101.1 30.0 101.5 30.7Q102.0 31.5 102.2 32.4Q102.5 33.4 102.7 34.6L102.7 34.6L102.7 35Q102.5 36.1 102.2 37.1Q101.9 38.0 101.4 38.7Q101.0 39.4 100.3 39.8Q99.5 40.2 98.6 40.2L98.6 40.2Q97.6 40.2 96.8 39.8Q96.0 39.4 95.5 38.7Q94.9 37.9 94.6 37.0Q94.3 36.0 94.3 34.8ZM97.1 34.6L97.1 34.6L97.1 34.8Q97.1 35.5 97.3 36.1Q97.4 36.6 97.6 37.1Q97.9 37.5 98.3 37.7Q98.7 38.0 99.3 38.0L99.3 38.0Q100.1 38.0 100.5 37.7Q101.0 37.3 101.3 36.7Q101.5 36.2 101.6 35.4L101.6 35.4L101.6 34.1Q101.5 33.5 101.4 33.0Q101.2 32.5 101.0 32.2Q100.7 31.8 100.3 31.6Q99.9 31.4 99.3 31.4L99.3 31.4Q98.7 31.4 98.3 31.7Q97.9 31.9 97.7 32.4Q97.4 32.8 97.3 33.4Q97.1 34.0 97.1 34.6ZM112.6 40L112.4 37.5L112.4 29.4L115.2 29.4L115.2 40L112.6 40ZM112.7 35.3L112.7 35.3L113.5 35.3Q113.5 36.3 113.3 37.2Q113.1 38.1 112.6 38.8Q112.1 39.5 111.3 39.8Q110.6 40.2 109.6 40.2L109.6 40.2Q108.8 40.2 108.2 40.0Q107.5 39.8 107.1 39.3Q106.6 38.8 106.3 38.1Q106.1 37.3 106.1 36.3L106.1 36.3L106.1 29.4L108.9 29.4L108.9 36.3Q108.9 36.7 109.0 37.1Q109.1 37.4 109.3 37.6Q109.5 37.8 109.8 37.9Q110.1 38.0 110.4 38.0L110.4 38.0Q111.3 38.0 111.8 37.6Q112.3 37.3 112.5 36.7Q112.7 36.1 112.7 35.3ZM123.1 37.6L123.1 37.6L123.1 32.9Q123.1 32.4 122.9 32.0Q122.7 31.7 122.4 31.5Q122.0 31.3 121.5 31.3L121.5 31.3Q121.0 31.3 120.7 31.4Q120.3 31.6 120.2 31.9Q120.0 32.2 120.0 32.6L120.0 32.6L117.2 32.6Q117.2 31.9 117.5 31.3Q117.8 30.7 118.4 30.2Q119.0 29.8 119.8 29.5Q120.6 29.2 121.6 29.2L121.6 29.2Q122.9 29.2 123.8 29.6Q124.8 30.1 125.3 30.9Q125.9 31.7 125.9 32.9L125.9 32.9L125.9 37.5Q125.9 38.3 126 38.9Q126.1 39.4 126.3 39.8L126.3 39.8L126.3 40L123.5 40Q123.3 39.6 123.2 38.9Q123.1 38.3 123.1 37.6ZM121.8 33.6L123.4 33.6L123.5 35.2L121.9 35.2Q121.3 35.2 120.9 35.3Q120.5 35.4 120.2 35.6Q120.0 35.9 119.9 36.2Q119.7 36.5 119.7 36.8L119.7 36.8Q119.7 37.2 119.9 37.5Q120.1 37.8 120.4 37.9Q120.7 38.1 121.1 38.1L121.1 38.1Q121.7 38.1 122.2 37.8Q122.7 37.6 122.9 37.2Q123.2 36.8 123.2 36.5L123.2 36.5L123.9 37.7Q123.8 38.1 123.5 38.5Q123.3 39.0 122.8 39.3Q122.4 39.7 121.9 40.0Q121.3 40.2 120.5 40.2L120.5 40.2Q119.5 40.2 118.7 39.8Q117.9 39.4 117.4 38.7Q116.9 37.9 116.9 37.0L116.9 37.0Q116.9 36.2 117.2 35.6Q117.5 34.9 118.1 34.5Q118.8 34.0 119.7 33.8Q120.6 33.6 121.8 33.6L121.8 33.6ZM134.5 31.9L134.8 29.4L137.3 29.4L137.3 39.6Q137.3 41.1 136.7 42.1Q136.0 43.1 134.9 43.6Q133.7 44.2 132.2 44.2L132.2 44.2Q131.6 44.2 130.8 44.0Q130.1 43.8 129.4 43.4Q128.7 43.1 128.3 42.5L128.3 42.5L129.5 40.8Q130.0 41.4 130.7 41.7Q131.3 42.0 132.1 42.0L132.1 42.0Q132.9 42.0 133.4 41.8Q133.9 41.5 134.2 41.0Q134.5 40.4 134.5 39.7L134.5 39.7L134.5 31.9ZM127.6 34.8L127.6 34.8L127.6 34.6Q127.6 33.4 127.9 32.4Q128.2 31.4 128.8 30.7Q129.3 30.0 130.1 29.6Q130.9 29.2 131.9 29.2L131.9 29.2Q133.0 29.2 133.7 29.6Q134.4 30.0 134.9 30.7Q135.3 31.5 135.6 32.4Q135.8 33.4 136.0 34.6L136.0 34.6L136.0 35Q135.8 36.1 135.5 37.1Q135.2 38.0 134.8 38.7Q134.3 39.4 133.6 39.8Q132.9 40.2 131.9 40.2L131.9 40.2Q130.9 40.2 130.1 39.8Q129.3 39.4 128.8 38.7Q128.2 37.9 127.9 37.0Q127.6 36.0 127.6 34.8ZM130.5 34.6L130.5 34.6L130.5 34.8Q130.5 35.5 130.6 36.1Q130.7 36.6 131.0 37.1Q131.2 37.5 131.6 37.7Q132.1 38.0 132.6 38.0L132.6 38.0Q133.4 38.0 133.9 37.7Q134.4 37.3 134.6 36.7Q134.8 36.2 134.9 35.4L134.9 35.4L134.9 34.1Q134.9 33.5 134.7 33.0Q134.6 32.5 134.3 32.2Q134.0 31.8 133.6 31.6Q133.2 31.4 132.6 31.4L132.6 31.4Q132.1 31.4 131.7 31.7Q131.3 31.9 131.0 32.4Q130.7 32.8 130.6 33.4Q130.5 34.0 130.5 34.6ZM144.3 40.2L144.3 40.2Q143.1 40.2 142.1 39.8Q141.2 39.4 140.5 38.7Q139.8 38.0 139.4 37.1Q139.1 36.1 139.1 35.1L139.1 35.1L139.1 34.7Q139.1 33.5 139.4 32.5Q139.8 31.5 140.4 30.8Q141.0 30.0 142.0 29.6Q142.9 29.2 144.0 29.2L144.0 29.2Q145.2 29.2 146.0 29.6Q146.9 30.0 147.5 30.7Q148.1 31.3 148.4 32.3Q148.7 33.3 148.7 34.4L148.7 34.4L148.7 35.6L140.3 35.6L140.3 33.7L145.9 33.7L145.9 33.5Q145.9 32.9 145.7 32.4Q145.5 32.0 145.1 31.7Q144.7 31.4 144.0 31.4L144.0 31.4Q143.5 31.4 143.1 31.7Q142.7 31.9 142.4 32.4Q142.2 32.8 142.0 33.4Q141.9 34.0 141.9 34.7L141.9 34.7L141.9 35.1Q141.9 35.7 142.1 36.3Q142.3 36.8 142.6 37.2Q142.9 37.6 143.4 37.8Q143.9 38.0 144.5 38.0L144.5 38.0Q145.3 38.0 145.9 37.7Q146.6 37.4 147.1 36.8L147.1 36.8L148.5 38.3Q148.1 38.8 147.5 39.2Q147.0 39.6 146.2 39.9Q145.4 40.2 144.3 40.2ZM156 37.1L156 37.1Q156 36.8 155.8 36.5Q155.6 36.3 155.2 36.1Q154.7 35.9 153.8 35.7L153.8 35.7Q153.0 35.5 152.3 35.2Q151.6 35.0 151.1 34.6Q150.6 34.2 150.3 33.7Q150.1 33.2 150.1 32.5L150.1 32.5Q150.1 31.8 150.4 31.3Q150.6 30.7 151.2 30.2Q151.7 29.8 152.5 29.5Q153.3 29.2 154.3 29.2L154.3 29.2Q155.7 29.2 156.6 29.7Q157.6 30.1 158.2 30.9Q158.7 31.7 158.7 32.6L158.7 32.6L155.9 32.6Q155.9 32.2 155.7 31.9Q155.6 31.6 155.2 31.4Q154.8 31.2 154.3 31.2L154.3 31.2Q153.8 31.2 153.5 31.3Q153.1 31.5 152.9 31.8Q152.8 32.0 152.8 32.4L152.8 32.4Q152.8 32.6 152.9 32.8Q153.0 33.0 153.2 33.1Q153.4 33.3 153.8 33.4Q154.2 33.6 154.7 33.7L154.7 33.7Q155.9 33.9 156.8 34.3Q157.7 34.7 158.2 35.3Q158.7 35.9 158.7 37.0L158.7 37.0Q158.7 37.7 158.4 38.3Q158.1 38.8 157.5 39.3Q156.9 39.7 156.1 40.0Q155.3 40.2 154.3 40.2L154.3 40.2Q152.8 40.2 151.8 39.7Q150.8 39.1 150.3 38.3Q149.7 37.5 149.7 36.7L149.7 36.7L152.4 36.7Q152.4 37.2 152.7 37.6Q153.0 37.9 153.4 38.1Q153.8 38.2 154.3 38.2L154.3 38.2Q154.9 38.2 155.3 38.1Q155.6 37.9 155.8 37.7Q156 37.4 156 37.1Z "/></g><clipPath id="satori_cp-id-1"><path x="21" y="60" width="558" height="12" d="M27,60 h546 a6,6 0 0 1 6,6 v0 a6,6 0 0 1 -6,6 h-546 a6,6 0 0 1 -6,-6 v0 a6,6 0 0 1 6,-6"/></clipPath><mask id="satori_om-id-1"><rect x="21" y="60" width="558" height="12" fill="#fff"/></mask><path x="21" y="60" width="558" height="12" fill="#f5f5f5" d="M27,60 h546 a6,6 0 0 1 6,6 v0 a6,6 0 0 1 -6,6 h-546 a6,6 0 0 1 -6,-6 v0 a6,6 0 0 1 6,-6"/><defs><clipPath id="satori_bc-id-1-0" clip-path="url(#satori_cp-id-1)"><rect x="21" y="60" width="268" height="12"/></clipPath></defs><mask id="satori_om-id-1-0"><rect x="21" y="60" width="267" height="12" fill="#fff" mask="url(#satori_om-id-1)"/><path width="268" height="12" fill="none" stroke="#000" stroke-width="2" d="M289,60 A0,0 0 0 1 289,60 v12 A0,0 0 0 1 289,72"/></mask><rect x="21" y="60" width="268" height="12" fill="#f34b7d" clip-path="url(#satori_cp-id-1)" mask="url(#satori_om-id-1)"/><path width="268" height="12" clip-path="url(#satori_bc-id-1-0)" fill="none" stroke="#ffffff" stroke-width="2" d="M289,60 A0,0 0 0 1 289,60 v12 A0,0 0 0 1 289,72"/><defs><clipPath id="satori_bc-id-1-1" clip-path="url(#satori_cp-id-1)"><rect x="289" y="60" width="82" height="12"/></clipPath></defs><mask id="satori_om-id-1-1"><rect x="289" y="60" width="81" height="12" fill="#fff" mask="url(#satori_om-id-1)"/><path width="82" height="12" fill="none" stroke="#000" stroke-width="2" d="M371,60 A0,0 0 0 1 371,60 v12 A0,0 0 0 1 371,72"/></mask><rect x="289" y="60" width="82" height="12" fill="#3178c6" clip-path="url(#satori_cp-id-1)" mask="url(#satori_om-id-1)"/><path width="82" height="12" clip-path="url(#satori_bc-id-1-1)" fill="none" stroke="#ffffff" stroke-width="2" d="M371,60 A0,0 0 0 1 371,60 v12 A0,0 0 0 1 371,72"/><defs><clipPath id="satori_bc-id-1-2" clip-path="url(#satori_cp-id-1)"><rect x="371" y="60" width="55" height="12"/></clipPath></defs><mask id="satori_om-id-1-2"><rect x="371" y="60" width="54" height="12" fill="#fff" mask="url(#satori_om-id-1)"/><path width="55" height="12" fill="none" stroke="#000" stroke-width="2" d="M426,60 A0,0 0 0 1 426,60 v12 A0,0 0 0 1 426,72"/></mask><rect x="371" y="60" width="55" height="12" fill="#555555" clip-path="url(#satori_cp-id-1)" mask="url(#satori_om-id-1)"/><path width="55" height="12" clip-path="url(#satori_bc-id-1-2)" fill="none" stroke="#ffffff" stroke-width="2" d="M426,60 A0,0 0 0 1 426,60 v12 A0,0 0 0 1 426,72"/><defs><clipPath id="satori_bc-id-1-3" clip-path="url(#satori_cp-id-1)"><rect x="426" y="60" width="43" height="12"/></clipPath></defs><mask id="satori_om-id-1-3"><rect x="426" y="60" width="42" height="12" fill="#fff" mask="url(#satori_om-id-1)"/><path width="43" height="12" fill="none" stroke="#000" stroke-width="2" d="M469,60 A0,0 0 0 1 469,60 v12 A0,0 0 0 1 469,72"/></mask><rect x="426" y="60" width="43" height="12" fill="#A97BFF" clip-path="url(#satori_cp-id-1)" mask="url(#satori_om-id-1)"/><path width="43" height="12" clip-path="url(#satori_bc-id-1-3)" fill="none" stroke="#ffffff" stroke-width="2" d="M469,60 A0,0 0 0 1 469,60 v12 A0,0 0 0 1 469,72"/><defs><clipPath id="satori_bc-id-1-4" clip-path="url(#satori_cp-id-1)"><rect x="469" y="60" width="34" height="12"/></clipPath></defs><mask id="satori_om-id-1-4"><rect x="469" y="60" width="33" height="12" fill="#fff" mask="url(#satori_om-id-1)"/><path width="34" height="12" fill="none" stroke="#000" stroke-width="2" d="M503,60 A0,0 0 0 1 503,60 v12 A0,0 0 0 1 503,72"/></mask><rect x="469" y="60" width="34" height="12" fill="#3D6117" clip-path="url(#satori_cp-id-1)" mask="url(#satori_om-id-1)"/><path width="34" height="12" clip-path="url(#satori_bc-id-1-4)" fill="none" stroke="#ffffff" stroke-width="2" d="M503,60 A0,0 0 0 1 503,60 v12 A0,0 0 0 1 503,72"/><defs><clipPath id="satori_bc-id-1-5" clip-path="url(#satori_cp-id-1)"><rect x="503" y="60" width="27" height="12"/></clipPath></defs><mask id="satori_om-id-1-5"><rect x="503" y="60" width="26" height="12" fill="#fff" mask="url(#satori_om-id-1)"/><path width="27" height="12" fill="none" stroke="#000" stroke-width="2" d="M530,60 A0,0 0 0 1 530,60 v12 A0,0 0 0 1 530,72"/></mask><rect x="503" y="60" width="27" height="12" fill="#00ADD8" clip-path="url(#satori_cp-id-1)" mask="url(#satori_om-id-1)"/><path width="27" height="12" clip-path="url(#satori_bc-id-1-5)" fill="none" stroke="#ffffff" stroke-width="2" d="M530,60 A0,0 0 0 1 530,60 v12 A0,0 0 0 1 530,72"/><defs><clipPath id="satori_bc-id-1-6" clip-path="url(#satori_cp-id-1)"><rect x="530" y="60" width="13" height="12"/></clipPath></defs><mask id="satori_om-id-1-6"><rect x="530" y="60" width="12" height="12" fill="#fff" mask="url(#satori_om-id-1)"/><path width="13" height="12" fill="none" stroke="#000" stroke-width="2" d="M543,60 A0,0 0 0 1 543,60 v12 A0,0 0 0 1 543,72"/></mask><rect x="530" y="60" width="13" height="12" fill="#41b883" clip-path="url(#satori_cp-id-1)" mask="url(#satori_om-id-1)"/><path width="13" height="12" clip-path="url(#satori_bc-id-1-6)" fill="none" stroke="#ffffff" stroke-width="2" d="M543,60 A0,0 0 0 1 543,60 v12 A0,0 0 0 1 543,72"/><defs><clipPath id="satori_bc-id-1-7" clip-path="url(#satori_cp-id-1)"><rect x="543" y="60" width="11" height="12"/></clipPath></defs><mask id="satori_om-id-1-7"><rect x="543" y="60" width="10" height="12" fill="#fff" mask="url(#satori_om-id-1)"/><path width="11" height="12" fill="none" stroke="#000" stroke-width="2" d="M554,60 A0,0 0 0 1 554,60 v12 A0,0 0 0 1 554,72"/></mask><rect x="543" y="60" width="11" height="12" fill="#b07219" clip-path="url(#satori_cp-id-1)" mask="url(#satori_om-id-1)"/><path width="11" height="12" clip-path="url(#satori_bc-id-1-7)" fill="none" stroke="#ffffff" stroke-width="2" d="M554,60 A0,0 0 0 1 554,60 v12 A0,0 0 0 1 554,72"/><defs><clipPath id="satori_bc-id-1-8" clip-path="url(#satori_cp-id-1)"><rect x="554" y="60" width="9" height="12"/></clipPath></defs><mask id="satori_om-id-1-8"><rect x="554" y="60" width="8" height="12" fill="#fff" mask="url(#satori_om-id-1)"/><path width="9" height="12" fill="none" stroke="#000" stroke-width="2" d="M563,60 A0,0 0 0 1 563,60 v12 A0,0 0 0 1 563,72"/></mask><rect x="554" y="60" width="9" height="12" fill="#DA3434" clip-path="url(#satori_cp-id-1)" mask="url(#satori_om-id-1)"/><path width="9" height="12" clip-path="url(#satori_bc-id-1-8)" fill="none" stroke="#ffffff" stroke-width="2" d="M563,60 A0,0 0 0 1 563,60 v12 A0,0 0 0 1 563,72"/><defs><clipPath id="satori_bc-id-1-9" clip-path="url(#satori_cp-id-1)"><rect x="563" y="60" width="7" height="12"/></clipPath></defs><mask id="satori_om-id-1-9"><rect x="563" y="60" width="6" height="12" fill="#fff" mask="url(#satori_om-id-1)"/><path width="7" height="12" fill="none" stroke="#000" stroke-width="2" d="M570,60 A0,0 0 0 1 570,60 v12 A0,0 0 0 1 570,72"/></mask><rect x="563" y="60" width="7" height="12" fill="#427819" clip-path="url(#satori_cp-id-1)" mask="url(#satori_om-id-1)"/><path width="7" height="12" clip-path="url(#satori_bc-id-1-9)" fill="none" stroke="#ffffff" stroke-width="2" d="M570,60 A0,0 0 0 1 570,60 v12 A0,0 0 0 1 570,72"/><defs><clipPath id="satori_bc-id-1-10" clip-path="url(#satori_cp-id-1)"><rect x="570" y="60" width="5" height="12"/></clipPath></defs><mask id="satori_om-id-1-10"><rect x="570" y="60" width="4" height="12" fill="#fff" mask="url(#satori_om-id-1)"/><path width="5" height="12" fill="none" stroke="#000" stroke-width="2" d="M575,60 A0,0 0 0 1 575,60 v12 A0,0 0 0 1 575,72"/></mask><rect x="570" y="60" width="5" height="12" fill="#663399" clip-path="url(#satori_cp-id-1)" mask="url(#satori_om-id-1)"/><path width="5" height="12" clip-path="url(#satori_bc-id-1-10)" fill="none" stroke="#ffffff" stroke-width="2" d="M575,60 A0,0 0 0 1 575,60 v12 A0,0 0 0 1 575,72"/><mask id="satori_om-id-1-11"><rect x="575" y="60" width="4" height="12" fill="#fff" mask="url(#satori_om-id-1)"/></mask><rect x="575" y="60" width="4" height="12" fill="#aace60" clip-path="url(#satori_cp-id-1)" mask="url(#satori_om-id-1)"/><mask id="satori_om-id-2"><rect x="21" y="88" width="558" height="96" fill="#fff"/></mask><mask id="satori_om-id-2-0"><rect x="21" y="88" width="87" height="16" fill="#fff"/></mask><mask id="satori_om-id-2-0-0"><rect x="21" y="91" width="10" height="10" fill="#fff"/></mask><path x="21" y="91" width="10" height="10" fill="#f34b7d" d="M26,91 h0 a5,5 0 0 1 5,5 v0 a5,5 0 0 1 -5,5 h0 a5,5 0 0 1 -5,-5 v0 a5,5 0 0 1 5,-5"/><mask id="satori_om-id-2-0-1"><rect x="39" y="88" width="25" height="16" fill="#fff"/></mask><g  ><path fill="black" d="M45.7 97.7L45.7 97.7L47.7 97.7Q47.6 98.7 47.2 99.5Q46.7 100.3 45.8 100.7Q44.9 101.1 43.7 101.1L43.7 101.1Q42.7 101.1 42.0 100.8Q41.2 100.5 40.7 99.9Q40.1 99.2 39.9 98.3Q39.6 97.5 39.6 96.4L39.6 96.4L39.6 95.7Q39.6 94.6 39.9 93.7Q40.2 92.8 40.7 92.2Q41.3 91.6 42.0 91.2Q42.8 90.9 43.7 90.9L43.7 90.9Q45.0 90.9 45.8 91.4Q46.7 91.8 47.1 92.6Q47.6 93.4 47.7 94.4L47.7 94.4L45.7 94.4Q45.6 93.8 45.4 93.4Q45.2 93.0 44.8 92.7Q44.4 92.5 43.7 92.5L43.7 92.5Q43.2 92.5 42.8 92.7Q42.4 92.9 42.2 93.3Q41.9 93.7 41.8 94.3Q41.7 94.9 41.7 95.7L41.7 95.7L41.7 96.4Q41.7 97.1 41.8 97.7Q41.9 98.3 42.1 98.7Q42.4 99.1 42.8 99.3Q43.1 99.5 43.7 99.5L43.7 99.5Q44.3 99.5 44.8 99.3Q45.2 99.1 45.4 98.7Q45.6 98.3 45.7 97.7ZM48.5 95.5L55.4 95.5L55.4 97.2L48.5 97.2L48.5 95.5ZM51.0 92.8L52.9 92.8L52.9 100.0L51.0 100.0L51.0 92.8ZM56.2 95.5L63.0 95.5L63.0 97.2L56.2 97.2L56.2 95.5ZM58.7 92.8L60.5 92.8L60.5 100.0L58.7 100.0L58.7 92.8Z "/></g><mask id="satori_om-id-2-0-2"><rect x="70" y="88" width="38" height="16" fill="#fff"/></mask><g  ><path fill="#8b949e" d="M71.8 97.7L77.6 97.7L77.6 98.7L70.4 98.7L70.4 97.9L74.8 91.0L75.9 91.0L74.7 93.0L71.8 97.7ZM74.9 91.0L76.2 91.0L76.2 101L74.9 101L74.9 91.0ZM78.4 91.0L85.1 91.0L85.1 91.8L81.0 101L79.7 101L83.8 92.1L78.4 92.1L78.4 91.0ZM86.7 100.3L86.7 100.3Q86.7 100.0 86.9 99.8Q87.1 99.6 87.5 99.6L87.5 99.6Q87.9 99.6 88.1 99.8Q88.3 100.0 88.3 100.3L88.3 100.3Q88.3 100.6 88.1 100.9Q87.9 101.1 87.5 101.1L87.5 101.1Q87.1 101.1 86.9 100.9Q86.7 100.6 86.7 100.3ZM90.0 91.0L96.7 91.0L96.7 91.8L92.6 101L91.2 101L95.3 92.1L90.0 92.1L90.0 91.0ZM98.0 93.5L98.0 93.5L98.0 93.0Q98.0 92.4 98.3 91.9Q98.5 91.5 99.0 91.2Q99.4 90.9 100.1 90.9L100.1 90.9Q100.7 90.9 101.1 91.2Q101.6 91.5 101.8 91.9Q102.1 92.4 102.1 93.0L102.1 93.0L102.1 93.5Q102.1 94.0 101.9 94.5Q101.6 95.0 101.2 95.3Q100.7 95.5 100.1 95.5L100.1 95.5Q99.4 95.5 99.0 95.3Q98.5 95.0 98.3 94.5Q98.0 94.0 98.0 93.5ZM99.0 93.0L99.0 93.0L99.0 93.5Q99.0 93.8 99.1 94.1Q99.2 94.4 99.4 94.5Q99.7 94.7 100.1 94.7L100.1 94.7Q100.4 94.7 100.7 94.5Q100.9 94.4 101.0 94.1Q101.1 93.8 101.1 93.5L101.1 93.5L101.1 93.0Q101.1 92.6 101.0 92.4Q100.9 92.1 100.7 91.9Q100.4 91.7 100.1 91.7L100.1 91.7Q99.7 91.7 99.4 91.9Q99.2 92.1 99.1 92.4Q99.0 92.6 99.0 93.0ZM102.9 99.1L102.9 99.1L102.9 98.6Q102.9 98.0 103.1 97.5Q103.4 97.1 103.8 96.8Q104.3 96.5 104.9 96.5L104.9 96.5Q105.5 96.5 106.0 96.8Q106.4 97.1 106.7 97.5Q106.9 98.0 106.9 98.6L106.9 98.6L106.9 99.1Q106.9 99.7 106.7 100.1Q106.5 100.6 106.0 100.9Q105.5 101.1 104.9 101.1L104.9 101.1Q104.3 101.1 103.8 100.9Q103.4 100.6 103.1 100.1Q102.9 99.7 102.9 99.1ZM103.8 98.6L103.8 98.6L103.8 99.1Q103.8 99.4 103.9 99.7Q104.0 100.0 104.3 100.1Q104.5 100.3 104.9 100.3L104.9 100.3Q105.3 100.3 105.5 100.1Q105.8 100.0 105.9 99.7Q106.0 99.4 106.0 99.1L106.0 99.1L106.0 98.6Q106.0 98.2 105.9 98.0Q105.8 97.7 105.5 97.5Q105.3 97.3 104.9 97.3L104.9 97.3Q104.5 97.3 104.3 97.5Q104.0 97.7 103.9 98.0Q103.8 98.2 103.8 98.6ZM104.5 92.0L105.2 92.5L100.4 100.2L99.6 99.8L104.5 92.0Z "/></g><mask id="satori_om-id-2-1"><rect x="132" y="88" width="131" height="16" fill="#fff"/></mask><mask id="satori_om-id-2-1-0"><rect x="132" y="91" width="10" height="10" fill="#fff"/></mask><path x="132" y="91" width="10" height="10" fill="#3178c6" d="M137,91 h0 a5,5 0 0 1 5,5 v0 a5,5 0 0 1 -5,5 h0 a5,5 0 0 1 -5,-5 v0 a5,5 0 0 1 5,-5"/><mask id="satori_om-id-2-1-1"><rect x="150" y="88" width="69" height="16" fill="#fff"/></mask><g  ><path fill="black" d="M153.3 91.0L155.3 91.0L155.3 101L153.3 101L153.3 91.0ZM150.3 91.0L158.4 91.0L158.4 92.7L150.3 92.7L150.3 91.0ZM161.1 101.6L161.6 100.2L163.6 93.6L165.7 93.6L162.7 102.1Q162.6 102.4 162.5 102.7Q162.3 103.0 162.0 103.3Q161.8 103.6 161.4 103.8Q161.0 104.0 160.4 104.0L160.4 104.0Q160.1 104.0 159.9 104.0Q159.7 103.9 159.5 103.9L159.5 103.9L159.5 102.4Q159.6 102.4 159.7 102.4Q159.7 102.4 159.8 102.4L159.8 102.4Q160.2 102.4 160.4 102.3Q160.7 102.2 160.8 102.1Q161.0 101.9 161.1 101.6L161.1 101.6ZM158.7 93.6L160.8 93.6L162.4 99.0L162.7 101.0L161.4 101.2L158.7 93.6ZM168.3 93.6L168.5 95.0L168.5 103.8L166.5 103.8L166.5 93.6L168.3 93.6ZM173.1 97.2L173.1 97.2L173.1 97.4Q173.1 98.2 173.0 98.9Q172.8 99.6 172.4 100.1Q172.0 100.6 171.5 100.9Q171.0 101.1 170.3 101.1L170.3 101.1Q169.6 101.1 169.1 100.9Q168.6 100.6 168.3 100.1Q167.9 99.6 167.7 98.9Q167.5 98.3 167.4 97.5L167.4 97.5L167.4 97.2Q167.5 96.4 167.7 95.7Q167.9 95.0 168.3 94.5Q168.6 94.0 169.1 93.7Q169.6 93.5 170.3 93.5L170.3 93.5Q171.0 93.5 171.5 93.7Q172.0 94 172.4 94.5Q172.8 95.0 173.0 95.7Q173.1 96.4 173.1 97.2ZM171.2 97.4L171.2 97.4L171.2 97.2Q171.2 96.7 171.1 96.3Q171.0 95.9 170.8 95.6Q170.7 95.3 170.4 95.2Q170.1 95.0 169.7 95.0L169.7 95.0Q169.3 95.0 169.1 95.1Q168.8 95.3 168.6 95.5Q168.4 95.8 168.3 96.1Q168.2 96.4 168.2 96.9L168.2 96.9L168.2 97.8Q168.3 98.3 168.4 98.7Q168.6 99.1 168.9 99.4Q169.2 99.6 169.8 99.6L169.8 99.6Q170.2 99.6 170.4 99.4Q170.7 99.3 170.9 98.9Q171.0 98.6 171.1 98.2Q171.2 97.8 171.2 97.4ZM177.8 101.1L177.8 101.1Q176.9 101.1 176.2 100.9Q175.5 100.6 175.1 100.1Q174.6 99.6 174.3 98.9Q174.1 98.3 174.1 97.6L174.1 97.6L174.1 97.3Q174.1 96.4 174.3 95.7Q174.6 95.0 175.0 94.5Q175.5 94.0 176.1 93.7Q176.7 93.5 177.5 93.5L177.5 93.5Q178.3 93.5 178.9 93.7Q179.6 94.0 180.0 94.5Q180.4 94.9 180.6 95.6Q180.8 96.3 180.8 97.1L180.8 97.1L180.8 97.9L174.9 97.9L174.9 96.6L178.9 96.6L178.9 96.4Q178.9 96.0 178.7 95.7Q178.6 95.4 178.3 95.2Q178.0 95.0 177.5 95.0L177.5 95.0Q177.1 95.0 176.9 95.2Q176.6 95.3 176.4 95.7Q176.2 96.0 176.1 96.4Q176.1 96.8 176.1 97.3L176.1 97.3L176.1 97.6Q176.1 98.0 176.2 98.4Q176.3 98.8 176.5 99.0Q176.8 99.3 177.1 99.4Q177.5 99.6 177.9 99.6L177.9 99.6Q178.4 99.6 178.9 99.4Q179.3 99.2 179.7 98.8L179.7 98.8L180.6 99.8Q180.4 100.1 180.0 100.4Q179.6 100.7 179.0 100.9Q178.5 101.1 177.8 101.1ZM187.2 98.4L187.2 98.4Q187.2 98.1 187.1 97.9Q187.1 97.7 186.9 97.5Q186.6 97.3 186.3 97.2Q185.9 97.0 185.3 96.8L185.3 96.8Q184.6 96.6 184.0 96.3Q183.4 96.0 182.9 95.7Q182.5 95.3 182.2 94.8Q181.9 94.3 181.9 93.7L181.9 93.7Q181.9 93.1 182.2 92.5Q182.5 92.0 183.0 91.7Q183.5 91.3 184.1 91.1Q184.8 90.9 185.6 90.9L185.6 90.9Q186.7 90.9 187.5 91.3Q188.4 91.7 188.8 92.4Q189.3 93.1 189.3 94.0L189.3 94.0L187.2 94.0Q187.2 93.5 187.1 93.2Q186.9 92.9 186.5 92.7Q186.1 92.5 185.6 92.5L185.6 92.5Q185.1 92.5 184.7 92.6Q184.3 92.8 184.2 93.1Q184.0 93.4 184.0 93.7L184.0 93.7Q184.0 93.9 184.1 94.1Q184.2 94.3 184.5 94.5Q184.7 94.7 185.1 94.9Q185.5 95.0 186.0 95.2L186.0 95.2Q186.8 95.4 187.4 95.7Q188.0 96.0 188.4 96.4Q188.9 96.8 189.1 97.3Q189.3 97.8 189.3 98.4L189.3 98.4Q189.3 99.0 189.0 99.5Q188.8 100.1 188.3 100.4Q187.8 100.8 187.2 101.0Q186.5 101.1 185.7 101.1L185.7 101.1Q184.9 101.1 184.2 100.9Q183.5 100.7 182.9 100.4Q182.3 100.0 182.0 99.3Q181.6 98.7 181.6 97.9L181.6 97.9L183.7 97.9Q183.7 98.3 183.8 98.7Q184.0 99.0 184.2 99.2Q184.5 99.4 184.9 99.5Q185.2 99.6 185.7 99.6L185.7 99.6Q186.2 99.6 186.5 99.4Q186.9 99.3 187.1 99.0Q187.2 98.7 187.2 98.4ZM193.6 99.6L193.6 99.6Q194.0 99.6 194.2 99.5Q194.5 99.3 194.7 99.1Q194.8 98.8 194.9 98.5L194.9 98.5L196.7 98.5Q196.7 99.2 196.3 99.8Q195.9 100.4 195.2 100.8Q194.5 101.1 193.6 101.1L193.6 101.1Q192.8 101.1 192.1 100.8Q191.5 100.6 191.1 100.1Q190.7 99.5 190.4 98.9Q190.2 98.2 190.2 97.4L190.2 97.4L190.2 97.2Q190.2 96.4 190.4 95.7Q190.7 95.1 191.1 94.6Q191.5 94.0 192.1 93.8Q192.8 93.5 193.6 93.5L193.6 93.5Q194.5 93.5 195.2 93.8Q195.9 94.2 196.3 94.8Q196.7 95.5 196.7 96.3L196.7 96.3L194.9 96.3Q194.8 96.0 194.7 95.7Q194.5 95.4 194.3 95.2Q194.0 95.0 193.6 95.0L193.6 95.0Q193.2 95.0 192.9 95.2Q192.6 95.4 192.5 95.7Q192.3 96.0 192.3 96.4Q192.2 96.8 192.2 97.2L192.2 97.2L192.2 97.4Q192.2 97.8 192.3 98.2Q192.3 98.6 192.5 98.9Q192.6 99.2 192.9 99.4Q193.2 99.6 193.6 99.6ZM199.7 93.6L199.8 95.2L199.8 101L197.8 101L197.8 93.6L199.7 93.6ZM202.0 93.6L202.0 93.6L202.0 95.4Q201.9 95.4 201.7 95.3Q201.5 95.3 201.3 95.3L201.3 95.3Q200.9 95.3 200.6 95.4Q200.3 95.5 200.1 95.7Q199.9 95.9 199.8 96.2Q199.7 96.5 199.6 96.9L199.6 96.9L199.3 96.8Q199.3 96.1 199.4 95.5Q199.5 94.9 199.8 94.4Q200.1 94.0 200.5 93.7Q200.9 93.5 201.4 93.5L201.4 93.5Q201.6 93.5 201.8 93.5Q201.9 93.5 202.0 93.6ZM203.1 93.6L205.0 93.6L205.0 101L203.1 101L203.1 93.6ZM202.9 91.7L202.9 91.7Q202.9 91.2 203.2 91.0Q203.5 90.7 204.1 90.7L204.1 90.7Q204.6 90.7 204.9 91.0Q205.2 91.2 205.2 91.7L205.2 91.7Q205.2 92.1 204.9 92.4Q204.6 92.7 204.1 92.7L204.1 92.7Q203.5 92.7 203.2 92.4Q202.9 92.1 202.9 91.7ZM208.5 93.6L208.6 95.0L208.6 103.8L206.7 103.8L206.7 93.6L208.5 93.6ZM213.3 97.2L213.3 97.2L213.3 97.4Q213.3 98.2 213.1 98.9Q212.9 99.6 212.6 100.1Q212.2 100.6 211.7 100.9Q211.1 101.1 210.5 101.1L210.5 101.1Q209.8 101.1 209.3 100.9Q208.8 100.6 208.4 100.1Q208.1 99.6 207.9 98.9Q207.7 98.3 207.6 97.5L207.6 97.5L207.6 97.2Q207.7 96.4 207.9 95.7Q208.1 95.0 208.4 94.5Q208.8 94.0 209.3 93.7Q209.8 93.5 210.4 93.5L210.4 93.5Q211.1 93.5 211.7 93.7Q212.2 94 212.6 94.5Q212.9 95.0 213.1 95.7Q213.3 96.4 213.3 97.2ZM211.3 97.4L211.3 97.4L211.3 97.2Q211.3 96.7 211.3 96.3Q211.2 95.9 211.0 95.6Q210.9 95.3 210.6 95.2Q210.3 95.0 209.9 95.0L209.9 95.0Q209.5 95.0 209.2 95.1Q209.0 95.3 208.8 95.5Q208.6 95.8 208.5 96.1Q208.4 96.4 208.4 96.9L208.4 96.9L208.4 97.8Q208.4 98.3 208.6 98.7Q208.8 99.1 209.1 99.4Q209.4 99.6 209.9 99.6L209.9 99.6Q210.3 99.6 210.6 99.4Q210.9 99.3 211.0 98.9Q211.2 98.6 211.3 98.2Q211.3 97.8 211.3 97.4ZM213.9 93.6L218.2 93.6L218.2 95.0L213.9 95.0L213.9 93.6ZM214.9 99.0L214.9 91.8L216.9 91.8L216.9 98.8Q216.9 99.1 217.0 99.3Q217.1 99.4 217.2 99.5Q217.4 99.6 217.7 99.6L217.7 99.6Q217.9 99.6 218.0 99.5Q218.1 99.5 218.3 99.5L218.3 99.5L218.3 101.0Q218.0 101.0 217.7 101.1Q217.4 101.1 217.1 101.1L217.1 101.1Q216.4 101.1 215.9 100.9Q215.4 100.7 215.2 100.2Q214.9 99.7 214.9 99.0L214.9 99.0Z "/></g><mask id="satori_om-id-2-1-2"><rect x="225" y="88" width="38" height="16" fill="#fff"/></mask><g  ><path fill="#8b949e" d="M229.8 91.0L230.0 91.0L230.0 101L228.7 101L228.7 92.6L226.2 93.5L226.2 92.4L229.8 91.0ZM234.7 97.7L240.4 97.7L240.4 98.7L233.2 98.7L233.2 97.9L237.7 91.0L238.7 91.0L237.6 93.0L234.7 97.7ZM237.8 91.0L239.0 91.0L239.0 101L237.8 101L237.8 91.0ZM241.7 100.3L241.7 100.3Q241.7 100.0 241.9 99.8Q242.1 99.6 242.5 99.6L242.5 99.6Q242.9 99.6 243.1 99.8Q243.3 100.0 243.3 100.3L243.3 100.3Q243.3 100.6 243.1 100.9Q242.9 101.1 242.5 101.1L242.5 101.1Q242.1 101.1 241.9 100.9Q241.7 100.6 241.7 100.3ZM246.2 97.7L252.0 97.7L252.0 98.7L244.8 98.7L244.8 97.9L249.2 91.0L250.3 91.0L249.2 93.0L246.2 97.7ZM249.3 91.0L250.6 91.0L250.6 101L249.3 101L249.3 91.0ZM253.0 93.5L253.0 93.5L253.0 93.0Q253.0 92.4 253.3 91.9Q253.5 91.5 254.0 91.2Q254.4 90.9 255.1 90.9L255.1 90.9Q255.7 90.9 256.1 91.2Q256.6 91.5 256.8 91.9Q257.1 92.4 257.1 93.0L257.1 93.0L257.1 93.5Q257.1 94.0 256.9 94.5Q256.6 95.0 256.2 95.3Q255.7 95.5 255.1 95.5L255.1 95.5Q254.4 95.5 254.0 95.3Q253.5 95.0 253.3 94.5Q253.0 94.0 253.0 93.5ZM254.0 93.0L254.0 93.0L254.0 93.5Q254.0 93.8 254.1 94.1Q254.2 94.4 254.4 94.5Q254.7 94.7 255.1 94.7L255.1 94.7Q255.4 94.7 255.7 94.5Q255.9 94.4 256.0 94.1Q256.1 93.8 256.1 93.5L256.1 93.5L256.1 93.0Q256.1 92.6 256.0 92.4Q255.9 92.1 255.7 91.9Q255.4 91.7 255.1 91.7L255.1 91.7Q254.7 91.7 254.4 91.9Q254.2 92.1 254.1 92.4Q254.0 92.6 254.0 93.0ZM257.9 99.1L257.9 99.1L257.9 98.6Q257.9 98.0 258.1 97.5Q258.4 97.1 258.8 96.8Q259.3 96.5 259.9 96.5L259.9 96.5Q260.5 96.5 261.0 96.8Q261.4 97.1 261.7 97.5Q261.9 98.0 261.9 98.6L261.9 98.6L261.9 99.1Q261.9 99.7 261.7 100.1Q261.5 100.6 261.0 100.9Q260.5 101.1 259.9 101.1L259.9 101.1Q259.3 101.1 258.8 100.9Q258.4 100.6 258.1 100.1Q257.9 99.7 257.9 99.1ZM258.8 98.6L258.8 98.6L258.8 99.1Q258.8 99.4 258.9 99.7Q259.0 100.0 259.3 100.1Q259.5 100.3 259.9 100.3L259.9 100.3Q260.3 100.3 260.5 100.1Q260.8 100.0 260.9 99.7Q261.0 99.4 261.0 99.1L261.0 99.1L261.0 98.6Q261.0 98.2 260.9 98.0Q260.8 97.7 260.5 97.5Q260.3 97.3 259.9 97.3L259.9 97.3Q259.5 97.3 259.3 97.5Q259.0 97.7 258.9 98.0Q258.8 98.2 258.8 98.6ZM259.5 92.0L260.2 92.5L255.4 100.2L254.6 99.8L259.5 92.0Z "/></g><mask id="satori_om-id-2-2"><rect x="287" y="88" width="72" height="16" fill="#fff"/></mask><mask id="satori_om-id-2-2-0"><rect x="287" y="91" width="10" height="10" fill="#fff"/></mask><path x="287" y="91" width="10" height="10" fill="#555555" d="M292,91 h0 a5,5 0 0 1 5,5 v0 a5,5 0 0 1 -5,5 h0 a5,5 0 0 1 -5,-5 v0 a5,5 0 0 1 5,-5"/><mask id="satori_om-id-2-2-1"><rect x="305" y="88" width="10" height="16" fill="#fff"/></mask><g  ><path fill="black" d="M311.7 97.7L311.7 97.7L313.7 97.7Q313.6 98.7 313.2 99.5Q312.7 100.3 311.8 100.7Q310.9 101.1 309.7 101.1L309.7 101.1Q308.7 101.1 308.0 100.8Q307.2 100.5 306.7 99.9Q306.1 99.2 305.9 98.3Q305.6 97.5 305.6 96.4L305.6 96.4L305.6 95.7Q305.6 94.6 305.9 93.7Q306.2 92.8 306.7 92.2Q307.3 91.6 308.0 91.2Q308.8 90.9 309.7 90.9L309.7 90.9Q311.0 90.9 311.8 91.4Q312.7 91.8 313.1 92.6Q313.6 93.4 313.7 94.4L313.7 94.4L311.7 94.4Q311.6 93.8 311.4 93.4Q311.2 93.0 310.8 92.7Q310.4 92.5 309.7 92.5L309.7 92.5Q309.2 92.5 308.8 92.7Q308.4 92.9 308.2 93.3Q307.9 93.7 307.8 94.3Q307.7 94.9 307.7 95.7L307.7 95.7L307.7 96.4Q307.7 97.1 307.8 97.7Q307.9 98.3 308.1 98.7Q308.4 99.1 308.8 99.3Q309.1 99.5 309.7 99.5L309.7 99.5Q310.3 99.5 310.8 99.3Q311.2 99.1 311.4 98.7Q311.6 98.3 311.7 97.7Z "/></g><mask id="satori_om-id-2-2-2"><rect x="321" y="88" width="38" height="16" fill="#fff"/></mask><g  ><path fill="#8b949e" d="M323.1 101.0L323.1 99.9L323.2 99.9Q324.3 99.9 325.0 99.6Q325.7 99.3 326.0 98.8Q326.4 98.3 326.6 97.6Q326.7 97.0 326.7 96.3L326.7 96.3L326.7 94.8Q326.7 94.1 326.5 93.6Q326.4 93.0 326.1 92.7Q325.8 92.3 325.5 92.1Q325.2 92.0 324.8 92.0L324.8 92.0Q324.3 92.0 324.0 92.1Q323.6 92.3 323.4 92.6Q323.2 92.9 323.1 93.4Q322.9 93.8 322.9 94.3L322.9 94.3Q322.9 94.7 323.0 95.1Q323.1 95.6 323.4 95.9Q323.6 96.2 323.9 96.4Q324.3 96.6 324.7 96.6L324.7 96.6Q325.2 96.6 325.5 96.5Q325.9 96.3 326.2 96.0Q326.5 95.7 326.7 95.3Q326.8 95.0 326.9 94.6L326.9 94.6L327.5 94.6Q327.5 95.1 327.2 95.7Q327.0 96.2 326.6 96.7Q326.2 97.1 325.7 97.4Q325.2 97.7 324.5 97.7L324.5 97.7Q323.8 97.7 323.2 97.4Q322.7 97.1 322.4 96.6Q322.0 96.1 321.9 95.5Q321.7 95.0 321.7 94.3L321.7 94.3Q321.7 93.6 321.9 93.0Q322.1 92.4 322.5 91.9Q322.9 91.4 323.4 91.2Q324.0 90.9 324.8 90.9L324.8 90.9Q325.6 90.9 326.2 91.3Q326.8 91.6 327.2 92.2Q327.6 92.7 327.8 93.5Q327.9 94.2 327.9 94.9L327.9 94.9L327.9 95.4Q327.9 96.2 327.8 97.0Q327.7 97.8 327.5 98.5Q327.2 99.2 326.7 99.8Q326.1 100.4 325.3 100.7Q324.5 101.0 323.2 101.0L323.2 101.0L323.1 101.0ZM329.9 100.3L329.9 100.3Q329.9 100.0 330.1 99.8Q330.3 99.6 330.6 99.6L330.6 99.6Q331.0 99.6 331.2 99.8Q331.4 100.0 331.4 100.3L331.4 100.3Q331.4 100.6 331.2 100.9Q331.0 101.1 330.6 101.1L330.6 101.1Q330.3 101.1 330.1 100.9Q329.9 100.6 329.9 100.3ZM338.2 91.0L338.2 91.0L338.3 91.0L338.3 92.1L338.2 92.1Q337.2 92.1 336.6 92.4Q335.9 92.8 335.5 93.3Q335.1 93.8 334.9 94.5Q334.7 95.2 334.7 95.9L334.7 95.9L334.7 97.4Q334.7 98.0 334.9 98.5Q335.1 99.0 335.3 99.4Q335.6 99.7 335.9 99.9Q336.3 100.1 336.7 100.1L336.7 100.1Q337.1 100.1 337.4 99.9Q337.8 99.8 338.0 99.5Q338.3 99.1 338.4 98.7Q338.5 98.3 338.5 97.8L338.5 97.8Q338.5 97.4 338.4 97.0Q338.3 96.5 338.1 96.2Q337.8 95.9 337.5 95.7Q337.2 95.5 336.7 95.5L336.7 95.5Q336.2 95.5 335.7 95.8Q335.3 96.0 335.0 96.4Q334.7 96.9 334.6 97.3L334.6 97.3L334.0 97.3Q334.1 96.6 334.3 96.0Q334.6 95.5 335.0 95.1Q335.4 94.8 335.9 94.6Q336.4 94.5 336.9 94.5L336.9 94.5Q337.6 94.5 338.2 94.8Q338.7 95.0 339.1 95.5Q339.4 96.0 339.6 96.6Q339.8 97.1 339.8 97.8L339.8 97.8Q339.8 98.5 339.6 99.1Q339.4 99.7 339.0 100.2Q338.6 100.6 338.0 100.9Q337.4 101.1 336.7 101.1L336.7 101.1Q335.9 101.1 335.3 100.8Q334.7 100.5 334.3 99.9Q333.9 99.4 333.7 98.7Q333.5 98.0 333.5 97.3L333.5 97.3L333.5 96.7Q333.5 95.7 333.7 94.7Q333.9 93.6 334.4 92.8Q334.9 92.0 335.9 91.5Q336.8 91.0 338.2 91.0ZM345.2 91.0L345.4 91.0L345.4 101L344.1 101L344.1 92.6L341.6 93.5L341.6 92.4L345.2 91.0ZM349.0 93.5L349.0 93.5L349.0 93.0Q349.0 92.4 349.3 91.9Q349.5 91.5 350.0 91.2Q350.4 90.9 351.1 90.9L351.1 90.9Q351.7 90.9 352.1 91.2Q352.6 91.5 352.8 91.9Q353.1 92.4 353.1 93.0L353.1 93.0L353.1 93.5Q353.1 94.0 352.9 94.5Q352.6 95.0 352.2 95.3Q351.7 95.5 351.1 95.5L351.1 95.5Q350.4 95.5 350.0 95.3Q349.5 95.0 349.3 94.5Q349.0 94.0 349.0 93.5ZM350.0 93.0L350.0 93.0L350.0 93.5Q350.0 93.8 350.1 94.1Q350.2 94.4 350.4 94.5Q350.7 94.7 351.1 94.7L351.1 94.7Q351.4 94.7 351.7 94.5Q351.9 94.4 352.0 94.1Q352.1 93.8 352.1 93.5L352.1 93.5L352.1 93.0Q352.1 92.6 352.0 92.4Q351.9 92.1 351.7 91.9Q351.4 91.7 351.1 91.7L351.1 91.7Q350.7 91.7 350.4 91.9Q350.2 92.1 350.1 92.4Q350.0 92.6 350.0 93.0ZM353.9 99.1L353.9 99.1L353.9 98.6Q353.9 98.0 354.1 97.5Q354.4 97.1 354.8 96.8Q355.3 96.5 355.9 96.5L355.9 96.5Q356.5 96.5 357.0 96.8Q357.4 97.1 357.7 97.5Q357.9 98.0 357.9 98.6L357.9 98.6L357.9 99.1Q357.9 99.7 357.7 100.1Q357.5 100.6 357.0 100.9Q356.5 101.1 355.9 101.1L355.9 101.1Q355.3 101.1 354.8 100.9Q354.4 100.6 354.1 100.1Q353.9 99.7 353.9 99.1ZM354.8 98.6L354.8 98.6L354.8 99.1Q354.8 99.4 354.9 99.7Q355.0 100.0 355.3 100.1Q355.5 100.3 355.9 100.3L355.9 100.3Q356.3 100.3 356.5 100.1Q356.8 100.0 356.9 99.7Q357.0 99.4 357.0 99.1L357.0 99.1L357.0 98.6Q357.0 98.2 356.9 98.0Q356.8 97.7 356.5 97.5Q356.3 97.3 355.9 97.3L355.9 97.3Q355.5 97.3 355.3 97.5Q355.0 97.7 354.9 98.0Q354.8 98.2 354.8 98.6ZM355.5 92.0L356.2 92.5L351.4 100.2L350.6 99.8L355.5 92.0Z "/></g><mask id="satori_om-id-2-3"><rect x="383" y="88" width="99" height="16" fill="#fff"/></mask><mask id="satori_om-id-2-3-0"><rect x="383" y="91" width="10" height="10" fill="#fff"/></mask><path x="383" y="91" width="10" height="10" fill="#A97BFF" d="M388,91 h0 a5,5 0 0 1 5,5 v0 a5,5 0 0 1 -5,5 h0 a5,5 0 0 1 -5,-5 v0 a5,5 0 0 1 5,-5"/><mask id="satori_om-id-2-3-1"><rect x="401" y="88" width="37" height="16" fill="#fff"/></mask><g  ><path fill="black" d="M401.9 91.0L403.9 91.0L403.9 101L401.9 101L401.9 91.0ZM407.4 91.0L409.9 91.0L406.0 96.0L403.7 98.4L403.3 96.5L404.8 94.4L407.4 91.0ZM410.0 101L407.6 101L404.6 96.4L406.2 95.1L410.0 101ZM410.4 97.4L410.4 97.4L410.4 97.2Q410.4 96.4 410.6 95.7Q410.8 95.0 411.3 94.5Q411.7 94.0 412.4 93.8Q413.0 93.5 413.8 93.5L413.8 93.5Q414.7 93.5 415.3 93.8Q416.0 94.0 416.4 94.5Q416.9 95.0 417.1 95.7Q417.4 96.4 417.4 97.2L417.4 97.2L417.4 97.4Q417.4 98.2 417.1 98.9Q416.9 99.6 416.4 100.1Q416.0 100.6 415.3 100.9Q414.7 101.1 413.9 101.1L413.9 101.1Q413.0 101.1 412.4 100.9Q411.7 100.6 411.3 100.1Q410.8 99.6 410.6 98.9Q410.4 98.2 410.4 97.4ZM412.3 97.2L412.3 97.2L412.3 97.4Q412.3 97.8 412.4 98.2Q412.5 98.6 412.7 99.0Q412.8 99.3 413.1 99.4Q413.4 99.6 413.9 99.6L413.9 99.6Q414.3 99.6 414.6 99.4Q414.9 99.3 415.0 99.0Q415.2 98.6 415.3 98.2Q415.4 97.8 415.4 97.4L415.4 97.4L415.4 97.2Q415.4 96.8 415.3 96.4Q415.2 96.0 415.0 95.7Q414.8 95.4 414.6 95.2Q414.3 95.0 413.8 95.0L413.8 95.0Q413.4 95.0 413.1 95.2Q412.8 95.4 412.7 95.7Q412.5 96.0 412.4 96.4Q412.3 96.8 412.3 97.2ZM417.9 93.6L422.2 93.6L422.2 95.0L417.9 95.0L417.9 93.6ZM419.0 99.0L419.0 91.8L420.9 91.8L420.9 98.8Q420.9 99.1 421.0 99.3Q421.1 99.4 421.3 99.5Q421.4 99.6 421.7 99.6L421.7 99.6Q421.9 99.6 422.0 99.5Q422.2 99.5 422.3 99.5L422.3 99.5L422.3 101.0Q422.0 101.0 421.7 101.1Q421.4 101.1 421.1 101.1L421.1 101.1Q420.4 101.1 420.0 100.9Q419.5 100.7 419.2 100.2Q419.0 99.7 419.0 99.0L419.0 99.0ZM423.4 90.5L425.4 90.5L425.4 101L423.4 101L423.4 90.5ZM427.1 93.6L429.1 93.6L429.1 101L427.1 101L427.1 93.6ZM427.0 91.7L427.0 91.7Q427.0 91.2 427.3 91.0Q427.6 90.7 428.1 90.7L428.1 90.7Q428.6 90.7 428.9 91.0Q429.2 91.2 429.2 91.7L429.2 91.7Q429.2 92.1 428.9 92.4Q428.6 92.7 428.1 92.7L428.1 92.7Q427.6 92.7 427.3 92.4Q427.0 92.1 427.0 91.7ZM432.5 93.6L432.6 95.2L432.6 101L430.7 101L430.7 93.6L432.5 93.6ZM432.4 97.0L432.4 97.0L431.8 97.0Q431.8 96.2 432.0 95.6Q432.2 94.9 432.6 94.4Q433.0 94.0 433.5 93.7Q434.1 93.5 434.7 93.5L434.7 93.5Q435.2 93.5 435.7 93.6Q436.1 93.8 436.4 94.1Q436.7 94.4 436.9 95.0Q437.1 95.5 437.1 96.3L437.1 96.3L437.1 101L435.1 101L435.1 96.3Q435.1 95.8 434.9 95.5Q434.8 95.2 434.5 95.1Q434.3 95.0 433.9 95.0L433.9 95.0Q433.5 95.0 433.2 95.2Q432.9 95.3 432.7 95.6Q432.5 95.9 432.5 96.2Q432.4 96.6 432.4 97.0Z "/></g><mask id="satori_om-id-2-3-2"><rect x="444" y="88" width="38" height="16" fill="#fff"/></mask><g  ><path fill="#8b949e" d="M444.5 91.0L451.3 91.0L451.3 91.8L447.1 101L445.8 101L449.9 92.1L444.5 92.1L444.5 91.0ZM452.9 100.3L452.9 100.3Q452.9 100.0 453.1 99.8Q453.3 99.6 453.6 99.6L453.6 99.6Q454.0 99.6 454.2 99.8Q454.4 100.0 454.4 100.3L454.4 100.3Q454.4 100.6 454.2 100.9Q454.0 101.1 453.6 101.1L453.6 101.1Q453.3 101.1 453.1 100.9Q452.9 100.6 452.9 100.3ZM458.0 96.3L458.0 96.3L457.0 96.0L457.5 91.0L462.6 91.0L462.6 92.2L458.5 92.2L458.2 94.9Q458.5 94.8 458.9 94.6Q459.4 94.5 459.9 94.5L459.9 94.5Q460.6 94.5 461.1 94.7Q461.7 95.0 462.1 95.4Q462.5 95.8 462.7 96.5Q462.9 97.1 462.9 97.8L462.9 97.8Q462.9 98.5 462.7 99.1Q462.5 99.7 462.1 100.2Q461.7 100.6 461.1 100.9Q460.5 101.1 459.7 101.1L459.7 101.1Q459.1 101.1 458.6 101.0Q458.0 100.8 457.6 100.5Q457.2 100.1 456.9 99.6Q456.7 99.1 456.6 98.4L456.6 98.4L457.8 98.4Q457.9 98.9 458.1 99.3Q458.4 99.7 458.8 99.9Q459.2 100.1 459.7 100.1L459.7 100.1Q460.2 100.1 460.5 99.9Q460.9 99.8 461.1 99.5Q461.3 99.2 461.5 98.8Q461.6 98.4 461.6 97.8L461.6 97.8Q461.6 97.4 461.5 97.0Q461.3 96.6 461.1 96.3Q460.8 96.0 460.5 95.8Q460.1 95.6 459.6 95.6L459.6 95.6Q459.0 95.6 458.7 95.8Q458.3 96.0 458.0 96.3ZM465.8 100.0L470.8 100.0L470.8 101L464.3 101L464.3 100.1L467.5 96.5Q468.1 95.8 468.5 95.3Q468.8 94.9 468.9 94.5Q469.1 94.1 469.1 93.7L469.1 93.7Q469.1 93.2 468.9 92.8Q468.7 92.4 468.3 92.2Q467.9 91.9 467.3 91.9L467.3 91.9Q466.7 91.9 466.2 92.2Q465.8 92.5 465.6 92.9Q465.3 93.4 465.3 94.0L465.3 94.0L464.1 94.0Q464.1 93.1 464.4 92.4Q464.8 91.7 465.5 91.3Q466.3 90.9 467.3 90.9L467.3 90.9Q468.3 90.9 468.9 91.2Q469.6 91.6 470.0 92.2Q470.3 92.8 470.3 93.6L470.3 93.6Q470.3 94.0 470.2 94.5Q470.0 94.9 469.8 95.3Q469.5 95.8 469.2 96.2Q468.8 96.7 468.5 97.1L468.5 97.1L465.8 100.0ZM472.0 93.5L472.0 93.5L472.0 93.0Q472.0 92.4 472.3 91.9Q472.5 91.5 473.0 91.2Q473.4 90.9 474.1 90.9L474.1 90.9Q474.7 90.9 475.1 91.2Q475.6 91.5 475.8 91.9Q476.1 92.4 476.1 93.0L476.1 93.0L476.1 93.5Q476.1 94.0 475.9 94.5Q475.6 95.0 475.2 95.3Q474.7 95.5 474.1 95.5L474.1 95.5Q473.4 95.5 473.0 95.3Q472.5 95.0 472.3 94.5Q472.0 94.0 472.0 93.5ZM473.0 93.0L473.0 93.0L473.0 93.5Q473.0 93.8 473.1 94.1Q473.2 94.4 473.4 94.5Q473.7 94.7 474.1 94.7L474.1 94.7Q474.4 94.7 474.7 94.5Q474.9 94.4 475.0 94.1Q475.1 93.8 475.1 93.5L475.1 93.5L475.1 93.0Q475.1 92.6 475.0 92.4Q474.9 92.1 474.7 91.9Q474.4 91.7 474.1 91.7L474.1 91.7Q473.7 91.7 473.4 91.9Q473.2 92.1 473.1 92.4Q473.0 92.6 473.0 93.0ZM476.9 99.1L476.9 99.1L476.9 98.6Q476.9 98.0 477.1 97.5Q477.4 97.1 477.8 96.8Q478.3 96.5 478.9 96.5L478.9 96.5Q479.5 96.5 480.0 96.8Q480.4 97.1 480.7 97.5Q480.9 98.0 480.9 98.6L480.9 98.6L480.9 99.1Q480.9 99.7 480.7 100.1Q480.5 100.6 480.0 100.9Q479.5 101.1 478.9 101.1L478.9 101.1Q478.3 101.1 477.8 100.9Q477.4 100.6 477.1 100.1Q476.9 99.7 476.9 99.1ZM477.8 98.6L477.8 98.6L477.8 99.1Q477.8 99.4 477.9 99.7Q478.0 100.0 478.3 100.1Q478.5 100.3 478.9 100.3L478.9 100.3Q479.3 100.3 479.5 100.1Q479.8 100.0 479.9 99.7Q480.0 99.4 480.0 99.1L480.0 99.1L480.0 98.6Q480.0 98.2 479.9 98.0Q479.8 97.7 479.5 97.5Q479.3 97.3 478.9 97.3L478.9 97.3Q478.5 97.3 478.3 97.5Q478.0 97.7 477.9 98.0Q477.8 98.2 477.8 98.6ZM478.5 92.0L479.2 92.5L474.4 100.2L473.6 99.8L478.5 92.0Z "/></g><mask id="satori_om-id-2-4"><rect x="21" y="128" width="88" height="16" fill="#fff"/></mask><mask id="satori_om-id-2-4-0"><rect x="21" y="131" width="10" height="10" fill="#fff"/></mask><path x="21" y="131" width="10" height="10" fill="#3D6117" d="M26,131 h0 a5,5 0 0 1 5,5 v0 a5,5 0 0 1 -5,5 h0 a5,5 0 0 1 -5,-5 v0 a5,5 0 0 1 5,-5"/><mask id="satori_om-id-2-4-1"><rect x="39" y="128" width="26" height="16" fill="#fff"/></mask><g  ><path fill="black" d="M42.3 131.0L44.3 131.0L44.3 141L42.3 141L42.3 131.0ZM39.3 131.0L47.4 131.0L47.4 132.7L39.3 132.7L39.3 131.0ZM51.8 141.1L51.8 141.1Q51.0 141.1 50.3 140.9Q49.6 140.6 49.1 140.1Q48.7 139.6 48.4 138.9Q48.2 138.3 48.2 137.6L48.2 137.6L48.2 137.3Q48.2 136.4 48.4 135.7Q48.6 135.0 49.1 134.5Q49.5 134.0 50.2 133.7Q50.8 133.5 51.6 133.5L51.6 133.5Q52.4 133.5 53.0 133.7Q53.6 134.0 54.0 134.5Q54.5 134.9 54.7 135.6Q54.9 136.3 54.9 137.1L54.9 137.1L54.9 137.9L49.0 137.9L49.0 136.6L52.9 136.6L52.9 136.4Q52.9 136.0 52.8 135.7Q52.7 135.4 52.4 135.2Q52.1 135.0 51.6 135.0L51.6 135.0Q51.2 135.0 50.9 135.2Q50.7 135.3 50.5 135.7Q50.3 136.0 50.2 136.4Q50.1 136.8 50.1 137.3L50.1 137.3L50.1 137.6Q50.1 138.0 50.3 138.4Q50.4 138.8 50.6 139.0Q50.9 139.3 51.2 139.4Q51.5 139.6 52.0 139.6L52.0 139.6Q52.5 139.6 53.0 139.4Q53.4 139.2 53.8 138.8L53.8 138.8L54.7 139.8Q54.5 140.1 54.1 140.4Q53.7 140.7 53.1 140.9Q52.6 141.1 51.8 141.1ZM55.5 131.0L57.8 131.0L59.7 134.5L61.6 131.0L63.9 131.0L61.0 136.0L64.0 141L61.6 141L59.7 137.5L57.8 141L55.4 141L58.4 136.0L55.5 131.0Z "/></g><mask id="satori_om-id-2-4-2"><rect x="71" y="128" width="38" height="16" fill="#fff"/></mask><g  ><path fill="#8b949e" d="M73.4 136.3L73.4 136.3L72.4 136.0L72.9 131.0L78.0 131.0L78.0 132.2L74.0 132.2L73.7 134.9Q74.0 134.8 74.4 134.6Q74.8 134.5 75.3 134.5L75.3 134.5Q76.0 134.5 76.6 134.7Q77.1 135.0 77.5 135.4Q77.9 135.8 78.1 136.5Q78.3 137.1 78.3 137.8L78.3 137.8Q78.3 138.5 78.1 139.1Q77.9 139.7 77.5 140.2Q77.1 140.6 76.6 140.9Q76.0 141.1 75.2 141.1L75.2 141.1Q74.6 141.1 74.0 141.0Q73.5 140.8 73.1 140.5Q72.6 140.1 72.4 139.6Q72.1 139.1 72.1 138.4L72.1 138.4L73.3 138.4Q73.3 138.9 73.6 139.3Q73.8 139.7 74.2 139.9Q74.6 140.1 75.2 140.1L75.2 140.1Q75.6 140.1 76.0 139.9Q76.3 139.8 76.6 139.5Q76.8 139.2 76.9 138.8Q77.0 138.4 77.0 137.8L77.0 137.8Q77.0 137.4 76.9 137.0Q76.8 136.6 76.5 136.3Q76.3 136.0 75.9 135.8Q75.5 135.6 75.1 135.6L75.1 135.6Q74.4 135.6 74.1 135.8Q73.8 136.0 73.4 136.3ZM79.9 140.3L79.9 140.3Q79.9 140.0 80.1 139.8Q80.3 139.6 80.6 139.6L80.6 139.6Q81.0 139.6 81.2 139.8Q81.4 140.0 81.4 140.3L81.4 140.3Q81.4 140.6 81.2 140.9Q81.0 141.1 80.6 141.1L80.6 141.1Q80.3 141.1 80.1 140.9Q79.9 140.6 79.9 140.3ZM84.6 141.0L84.6 139.9L84.8 139.9Q85.9 139.9 86.6 139.6Q87.2 139.3 87.6 138.8Q88.0 138.3 88.1 137.6Q88.2 137.0 88.2 136.3L88.2 136.3L88.2 134.8Q88.2 134.1 88.1 133.6Q87.9 133.0 87.7 132.7Q87.4 132.3 87.1 132.1Q86.7 132.0 86.3 132.0L86.3 132.0Q85.9 132.0 85.6 132.1Q85.2 132.3 85.0 132.6Q84.7 132.9 84.6 133.4Q84.5 133.8 84.5 134.3L84.5 134.3Q84.5 134.7 84.6 135.1Q84.7 135.6 84.9 135.9Q85.2 136.2 85.5 136.4Q85.8 136.6 86.3 136.6L86.3 136.6Q86.7 136.6 87.1 136.5Q87.5 136.3 87.8 136.0Q88.0 135.7 88.2 135.3Q88.4 135.0 88.4 134.6L88.4 134.6L89.0 134.6Q89.0 135.1 88.8 135.7Q88.6 136.2 88.2 136.7Q87.8 137.1 87.2 137.4Q86.7 137.7 86.1 137.7L86.1 137.7Q85.3 137.7 84.8 137.4Q84.3 137.1 83.9 136.6Q83.6 136.1 83.4 135.5Q83.2 135.0 83.2 134.3L83.2 134.3Q83.2 133.6 83.4 133.0Q83.6 132.4 84.0 131.9Q84.4 131.4 85.0 131.2Q85.6 130.9 86.3 130.9L86.3 130.9Q87.2 130.9 87.8 131.3Q88.4 131.6 88.8 132.2Q89.1 132.7 89.3 133.5Q89.5 134.2 89.5 134.9L89.5 134.9L89.5 135.4Q89.5 136.2 89.4 137.0Q89.3 137.8 89.0 138.5Q88.8 139.2 88.2 139.8Q87.7 140.4 86.9 140.7Q86.0 141.0 84.8 141.0L84.8 141.0L84.6 141.0ZM92.8 140.0L97.8 140.0L97.8 141L91.3 141L91.3 140.1L94.5 136.5Q95.1 135.8 95.5 135.3Q95.8 134.9 95.9 134.5Q96.1 134.1 96.1 133.7L96.1 133.7Q96.1 133.2 95.9 132.8Q95.7 132.4 95.3 132.2Q94.9 131.9 94.3 131.9L94.3 131.9Q93.7 131.9 93.2 132.2Q92.8 132.5 92.6 132.9Q92.3 133.4 92.3 134.0L92.3 134.0L91.1 134.0Q91.1 133.1 91.4 132.4Q91.8 131.7 92.5 131.3Q93.3 130.9 94.3 130.9L94.3 130.9Q95.3 130.9 95.9 131.2Q96.6 131.6 97.0 132.2Q97.3 132.8 97.3 133.6L97.3 133.6Q97.3 134.0 97.2 134.5Q97.0 134.9 96.8 135.3Q96.5 135.8 96.2 136.2Q95.8 136.7 95.5 137.1L95.5 137.1L92.8 140.0ZM99.0 133.5L99.0 133.5L99.0 133.0Q99.0 132.4 99.3 131.9Q99.5 131.5 100.0 131.2Q100.4 130.9 101.1 130.9L101.1 130.9Q101.7 130.9 102.1 131.2Q102.6 131.5 102.8 131.9Q103.1 132.4 103.1 133.0L103.1 133.0L103.1 133.5Q103.1 134.0 102.9 134.5Q102.6 135.0 102.2 135.3Q101.7 135.5 101.1 135.5L101.1 135.5Q100.4 135.5 100.0 135.3Q99.5 135.0 99.3 134.5Q99.0 134.0 99.0 133.5ZM100.0 133.0L100.0 133.0L100.0 133.5Q100.0 133.8 100.1 134.1Q100.2 134.4 100.4 134.5Q100.7 134.7 101.1 134.7L101.1 134.7Q101.4 134.7 101.7 134.5Q101.9 134.4 102.0 134.1Q102.1 133.8 102.1 133.5L102.1 133.5L102.1 133.0Q102.1 132.6 102.0 132.4Q101.9 132.1 101.7 131.9Q101.4 131.7 101.1 131.7L101.1 131.7Q100.7 131.7 100.4 131.9Q100.2 132.1 100.1 132.4Q100.0 132.6 100.0 133.0ZM103.9 139.1L103.9 139.1L103.9 138.6Q103.9 138.0 104.1 137.5Q104.4 137.1 104.8 136.8Q105.3 136.5 105.9 136.5L105.9 136.5Q106.5 136.5 107.0 136.8Q107.4 137.1 107.7 137.5Q107.9 138.0 107.9 138.6L107.9 138.6L107.9 139.1Q107.9 139.7 107.7 140.1Q107.5 140.6 107.0 140.9Q106.5 141.1 105.9 141.1L105.9 141.1Q105.3 141.1 104.8 140.9Q104.4 140.6 104.1 140.1Q103.9 139.7 103.9 139.1ZM104.8 138.6L104.8 138.6L104.8 139.1Q104.8 139.4 104.9 139.7Q105.0 140.0 105.3 140.1Q105.5 140.3 105.9 140.3L105.9 140.3Q106.3 140.3 106.5 140.1Q106.8 140.0 106.9 139.7Q107.0 139.4 107.0 139.1L107.0 139.1L107.0 138.6Q107.0 138.2 106.9 138.0Q106.8 137.7 106.5 137.5Q106.3 137.3 105.9 137.3L105.9 137.3Q105.5 137.3 105.3 137.5Q105.0 137.7 104.9 138.0Q104.8 138.2 104.8 138.6ZM105.5 132.0L106.2 132.5L101.4 140.2L100.6 139.8L105.5 132.0Z "/></g><mask id="satori_om-id-2-5"><rect x="133" y="128" width="80" height="16" fill="#fff"/></mask><mask id="satori_om-id-2-5-0"><rect x="133" y="131" width="10" height="10" fill="#fff"/></mask><path x="133" y="131" width="10" height="10" fill="#00ADD8" d="M138,131 h0 a5,5 0 0 1 5,5 v0 a5,5 0 0 1 -5,5 h0 a5,5 0 0 1 -5,-5 v0 a5,5 0 0 1 5,-5"/><mask id="satori_om-id-2-5-1"><rect x="151" y="128" width="18" height="16" fill="#fff"/></mask><g  ><path fill="black" d="M155.9 135.8L159.8 135.8L159.8 139.7Q159.5 140.0 159.1 140.3Q158.6 140.7 157.8 140.9Q157.0 141.1 156.0 141.1L156.0 141.1Q155.0 141.1 154.2 140.8Q153.4 140.5 152.8 139.9Q152.3 139.3 152.0 138.4Q151.6 137.5 151.6 136.3L151.6 136.3L151.6 135.7Q151.6 134.6 151.9 133.7Q152.2 132.8 152.8 132.2Q153.4 131.5 154.1 131.2Q154.9 130.9 155.8 130.9L155.8 130.9Q157.1 130.9 158.0 131.3Q158.8 131.7 159.2 132.5Q159.7 133.2 159.8 134.2L159.8 134.2L157.8 134.2Q157.7 133.7 157.5 133.3Q157.3 132.9 156.9 132.7Q156.5 132.5 155.9 132.5L155.9 132.5Q155.4 132.5 155.0 132.7Q154.6 132.9 154.3 133.3Q154.0 133.7 153.9 134.3Q153.7 134.9 153.7 135.7L153.7 135.7L153.7 136.3Q153.7 137.1 153.9 137.7Q154.0 138.3 154.3 138.7Q154.6 139.1 155.1 139.3Q155.5 139.5 156.1 139.5L156.1 139.5Q156.6 139.5 156.9 139.5Q157.2 139.4 157.4 139.3Q157.6 139.1 157.7 139.0L157.7 139.0L157.7 137.3L155.9 137.3L155.9 135.8ZM161.0 137.4L161.0 137.4L161.0 137.2Q161.0 136.4 161.2 135.7Q161.5 135.0 161.9 134.5Q162.3 134.0 163.0 133.8Q163.6 133.5 164.5 133.5L164.5 133.5Q165.3 133.5 166.0 133.8Q166.6 134.0 167.1 134.5Q167.5 135.0 167.8 135.7Q168.0 136.4 168.0 137.2L168.0 137.2L168.0 137.4Q168.0 138.2 167.8 138.9Q167.5 139.6 167.1 140.1Q166.6 140.6 166.0 140.9Q165.3 141.1 164.5 141.1L164.5 141.1Q163.7 141.1 163.0 140.9Q162.4 140.6 161.9 140.1Q161.5 139.6 161.2 138.9Q161.0 138.2 161.0 137.4ZM163.0 137.2L163.0 137.2L163.0 137.4Q163.0 137.8 163.0 138.2Q163.1 138.6 163.3 139.0Q163.5 139.3 163.8 139.4Q164.1 139.6 164.5 139.6L164.5 139.6Q164.9 139.6 165.2 139.4Q165.5 139.3 165.7 139.0Q165.9 138.6 165.9 138.2Q166.0 137.8 166.0 137.4L166.0 137.4L166.0 137.2Q166.0 136.8 165.9 136.4Q165.9 136.0 165.7 135.7Q165.5 135.4 165.2 135.2Q164.9 135.0 164.5 135.0L164.5 135.0Q164.1 135.0 163.8 135.2Q163.5 135.4 163.3 135.7Q163.1 136.0 163.0 136.4Q163.0 136.8 163.0 137.2Z "/></g><mask id="satori_om-id-2-5-2"><rect x="175" y="128" width="38" height="16" fill="#fff"/></mask><g  ><path fill="#8b949e" d="M176.8 137.7L182.6 137.7L182.6 138.7L175.4 138.7L175.4 137.9L179.8 131.0L180.9 131.0L179.7 133.0L176.8 137.7ZM179.9 131.0L181.2 131.0L181.2 141L179.9 141L179.9 131.0ZM183.9 140.3L183.9 140.3Q183.9 140.0 184.1 139.8Q184.3 139.6 184.6 139.6L184.6 139.6Q185.0 139.6 185.2 139.8Q185.4 140.0 185.4 140.3L185.4 140.3Q185.4 140.6 185.2 140.9Q185.0 141.1 184.6 141.1L184.6 141.1Q184.3 141.1 184.1 140.9Q183.9 140.6 183.9 140.3ZM189.0 136.3L189.0 136.3L188.0 136.0L188.5 131.0L193.6 131.0L193.6 132.2L189.5 132.2L189.2 134.9Q189.5 134.8 189.9 134.6Q190.4 134.5 190.9 134.5L190.9 134.5Q191.6 134.5 192.1 134.7Q192.7 135.0 193.1 135.4Q193.5 135.8 193.7 136.5Q193.9 137.1 193.9 137.8L193.9 137.8Q193.9 138.5 193.7 139.1Q193.5 139.7 193.1 140.2Q192.7 140.6 192.1 140.9Q191.5 141.1 190.7 141.1L190.7 141.1Q190.1 141.1 189.6 141.0Q189.0 140.8 188.6 140.5Q188.2 140.1 187.9 139.6Q187.7 139.1 187.6 138.4L187.6 138.4L188.8 138.4Q188.9 138.9 189.1 139.3Q189.4 139.7 189.8 139.9Q190.2 140.1 190.7 140.1L190.7 140.1Q191.2 140.1 191.5 139.9Q191.9 139.8 192.1 139.5Q192.3 139.2 192.5 138.8Q192.6 138.4 192.6 137.8L192.6 137.8Q192.6 137.4 192.5 137.0Q192.3 136.6 192.1 136.3Q191.8 136.0 191.5 135.8Q191.1 135.6 190.6 135.6L190.6 135.6Q190.0 135.6 189.7 135.8Q189.3 136.0 189.0 136.3ZM197.1 136.2L197.1 135.4L198.0 135.4Q198.7 135.4 199.1 135.2Q199.5 135.0 199.7 134.6Q200.0 134.2 200.0 133.7L200.0 133.7Q200.0 133.1 199.8 132.7Q199.6 132.3 199.2 132.1Q198.8 131.9 198.2 131.9L198.2 131.9Q197.7 131.9 197.3 132.2Q196.9 132.4 196.7 132.7Q196.4 133.1 196.4 133.7L196.4 133.7L195.2 133.7Q195.2 132.9 195.5 132.3Q195.9 131.6 196.6 131.3Q197.3 130.9 198.2 130.9L198.2 130.9Q199.1 130.9 199.8 131.2Q200.5 131.5 200.9 132.2Q201.2 132.8 201.2 133.7L201.2 133.7Q201.2 134.1 201.1 134.5Q200.9 135.0 200.5 135.3Q200.2 135.7 199.6 135.9Q199.0 136.2 198.2 136.2L198.2 136.2L197.1 136.2ZM198.0 136.4L197.1 136.4L197.1 135.7L198.2 135.7Q199.1 135.7 199.8 135.9Q200.4 136.1 200.7 136.5Q201.1 136.9 201.2 137.3Q201.4 137.8 201.4 138.2L201.4 138.2Q201.4 138.9 201.2 139.5Q200.9 140.0 200.5 140.4Q200.1 140.8 199.5 140.9Q198.9 141.1 198.2 141.1L198.2 141.1Q197.6 141.1 197.0 141.0Q196.4 140.8 196.0 140.4Q195.6 140.1 195.3 139.5Q195.1 139.0 195.1 138.4L195.1 138.4L196.3 138.4Q196.3 138.9 196.6 139.3Q196.8 139.7 197.2 139.9Q197.7 140.1 198.2 140.1L198.2 140.1Q198.8 140.1 199.2 139.9Q199.7 139.7 199.9 139.3Q200.1 138.9 200.1 138.3L200.1 138.3Q200.1 137.6 199.9 137.2Q199.6 136.8 199.1 136.6Q198.6 136.4 198.0 136.4L198.0 136.4ZM203.0 133.5L203.0 133.5L203.0 133.0Q203.0 132.4 203.3 131.9Q203.5 131.5 204.0 131.2Q204.4 130.9 205.1 130.9L205.1 130.9Q205.7 130.9 206.1 131.2Q206.6 131.5 206.8 131.9Q207.1 132.4 207.1 133.0L207.1 133.0L207.1 133.5Q207.1 134.0 206.9 134.5Q206.6 135.0 206.2 135.3Q205.7 135.5 205.1 135.5L205.1 135.5Q204.4 135.5 204.0 135.3Q203.5 135.0 203.3 134.5Q203.0 134.0 203.0 133.5ZM204.0 133.0L204.0 133.0L204.0 133.5Q204.0 133.8 204.1 134.1Q204.2 134.4 204.4 134.5Q204.7 134.7 205.1 134.7L205.1 134.7Q205.4 134.7 205.7 134.5Q205.9 134.4 206.0 134.1Q206.1 133.8 206.1 133.5L206.1 133.5L206.1 133.0Q206.1 132.6 206.0 132.4Q205.9 132.1 205.7 131.9Q205.4 131.7 205.1 131.7L205.1 131.7Q204.7 131.7 204.4 131.9Q204.2 132.1 204.1 132.4Q204.0 132.6 204.0 133.0ZM207.9 139.1L207.9 139.1L207.9 138.6Q207.9 138.0 208.1 137.5Q208.4 137.1 208.8 136.8Q209.3 136.5 209.9 136.5L209.9 136.5Q210.5 136.5 211.0 136.8Q211.4 137.1 211.7 137.5Q211.9 138.0 211.9 138.6L211.9 138.6L211.9 139.1Q211.9 139.7 211.7 140.1Q211.5 140.6 211.0 140.9Q210.5 141.1 209.9 141.1L209.9 141.1Q209.3 141.1 208.8 140.9Q208.4 140.6 208.1 140.1Q207.9 139.7 207.9 139.1ZM208.8 138.6L208.8 138.6L208.8 139.1Q208.8 139.4 208.9 139.7Q209.0 140.0 209.3 140.1Q209.5 140.3 209.9 140.3L209.9 140.3Q210.3 140.3 210.5 140.1Q210.8 140.0 210.9 139.7Q211.0 139.4 211.0 139.1L211.0 139.1L211.0 138.6Q211.0 138.2 210.9 138.0Q210.8 137.7 210.5 137.5Q210.3 137.3 209.9 137.3L209.9 137.3Q209.5 137.3 209.3 137.5Q209.0 137.7 208.9 138.0Q208.8 138.2 208.8 138.6ZM209.5 132.0L210.2 132.5L205.4 140.2L204.6 139.8L209.5 132.0Z "/></g><mask id="satori_om-id-2-6"><rect x="237" y="128" width="87" height="16" fill="#fff"/></mask><mask id="satori_om-id-2-6-0"><rect x="237" y="131" width="10" height="10" fill="#fff"/></mask><path x="237" y="131" width="10" height="10" fill="#41b883" d="M242,131 h0 a5,5 0 0 1 5,5 v0 a5,5 0 0 1 -5,5 h0 a5,5 0 0 1 -5,-5 v0 a5,5 0 0 1 5,-5"/><mask id="satori_om-id-2-6-1"><rect x="255" y="128" width="25" height="16" fill="#fff"/></mask><g  ><path fill="black" d="M259.1 141L259.5 138.9L261.8 131.0L264.1 131.0L260.6 141L259.1 141ZM255.0 131.0L257.3 131.0L259.7 138.9L260.0 141L258.5 141L255.0 131.0ZM269.4 141L269.3 139.2L269.3 133.6L271.3 133.6L271.3 141L269.4 141ZM269.5 137.7L269.5 137.7L270.1 137.7Q270.1 138.4 269.9 139.1Q269.7 139.7 269.4 140.2Q269.1 140.6 268.5 140.9Q268.0 141.1 267.3 141.1L267.3 141.1Q266.8 141.1 266.3 141.0Q265.9 140.8 265.5 140.5Q265.2 140.2 265.0 139.6Q264.9 139.1 264.9 138.4L264.9 138.4L264.9 133.6L266.8 133.6L266.8 138.4Q266.8 138.7 266.9 138.9Q267.0 139.2 267.1 139.3Q267.3 139.5 267.5 139.5Q267.7 139.6 267.9 139.6L267.9 139.6Q268.5 139.6 268.9 139.3Q269.2 139.1 269.4 138.7Q269.5 138.2 269.5 137.7ZM276.2 141.1L276.2 141.1Q275.3 141.1 274.6 140.9Q273.9 140.6 273.5 140.1Q273.0 139.6 272.7 138.9Q272.5 138.3 272.5 137.6L272.5 137.6L272.5 137.3Q272.5 136.4 272.7 135.7Q273.0 135.0 273.4 134.5Q273.8 134.0 274.5 133.7Q275.1 133.5 275.9 133.5L275.9 133.5Q276.7 133.5 277.3 133.7Q277.9 134.0 278.4 134.5Q278.8 134.9 279.0 135.6Q279.2 136.3 279.2 137.1L279.2 137.1L279.2 137.9L273.3 137.9L273.3 136.6L277.3 136.6L277.3 136.4Q277.3 136.0 277.1 135.7Q277.0 135.4 276.7 135.2Q276.4 135.0 275.9 135.0L275.9 135.0Q275.5 135.0 275.2 135.2Q275.0 135.3 274.8 135.7Q274.6 136.0 274.5 136.4Q274.4 136.8 274.4 137.3L274.4 137.3L274.4 137.6Q274.4 138.0 274.6 138.4Q274.7 138.8 274.9 139.0Q275.2 139.3 275.5 139.4Q275.8 139.6 276.3 139.6L276.3 139.6Q276.8 139.6 277.3 139.4Q277.7 139.2 278.1 138.8L278.1 138.8L279.0 139.8Q278.8 140.1 278.4 140.4Q278.0 140.7 277.4 140.9Q276.9 141.1 276.2 141.1Z "/></g><mask id="satori_om-id-2-6-2"><rect x="286" y="128" width="38" height="16" fill="#fff"/></mask><g  ><path fill="#8b949e" d="M288.4 140.0L293.3 140.0L293.3 141L286.8 141L286.8 140.1L290.1 136.5Q290.7 135.8 291.0 135.3Q291.4 134.9 291.5 134.5Q291.6 134.1 291.6 133.7L291.6 133.7Q291.6 133.2 291.4 132.8Q291.2 132.4 290.8 132.2Q290.4 131.9 289.9 131.9L289.9 131.9Q289.2 131.9 288.8 132.2Q288.3 132.5 288.1 132.9Q287.9 133.4 287.9 134.0L287.9 134.0L286.6 134.0Q286.6 133.1 287.0 132.4Q287.4 131.7 288.1 131.3Q288.8 130.9 289.9 130.9L289.9 130.9Q290.8 130.9 291.5 131.2Q292.2 131.6 292.5 132.2Q292.9 132.8 292.9 133.6L292.9 133.6Q292.9 134.0 292.7 134.5Q292.6 134.9 292.3 135.3Q292.1 135.8 291.7 136.2Q291.4 136.7 291.0 137.1L291.0 137.1L288.4 140.0ZM294.9 140.3L294.9 140.3Q294.9 140.0 295.1 139.8Q295.3 139.6 295.6 139.6L295.6 139.6Q296.0 139.6 296.2 139.8Q296.4 140.0 296.4 140.3L296.4 140.3Q296.4 140.6 296.2 140.9Q296.0 141.1 295.6 141.1L295.6 141.1Q295.3 141.1 295.1 140.9Q294.9 140.6 294.9 140.3ZM299.9 140.0L304.9 140.0L304.9 141L298.4 141L298.4 140.1L301.7 136.5Q302.3 135.8 302.6 135.3Q302.9 134.9 303.1 134.5Q303.2 134.1 303.2 133.7L303.2 133.7Q303.2 133.2 303.0 132.8Q302.8 132.4 302.4 132.2Q302.0 131.9 301.4 131.9L301.4 131.9Q300.8 131.9 300.3 132.2Q299.9 132.5 299.7 132.9Q299.5 133.4 299.5 134.0L299.5 134.0L298.2 134.0Q298.2 133.1 298.6 132.4Q298.9 131.7 299.7 131.3Q300.4 130.9 301.4 130.9L301.4 130.9Q302.4 130.9 303.1 131.2Q303.7 131.6 304.1 132.2Q304.5 132.8 304.5 133.6L304.5 133.6Q304.5 134.0 304.3 134.5Q304.2 134.9 303.9 135.3Q303.6 135.8 303.3 136.2Q303.0 136.7 302.6 137.1L302.6 137.1L299.9 140.0ZM308.1 136.2L308.1 135.4L309.0 135.4Q309.7 135.4 310.1 135.2Q310.5 135.0 310.7 134.6Q311.0 134.2 311.0 133.7L311.0 133.7Q311.0 133.1 310.8 132.7Q310.6 132.3 310.2 132.1Q309.8 131.9 309.2 131.9L309.2 131.9Q308.7 131.9 308.3 132.2Q307.9 132.4 307.7 132.7Q307.4 133.1 307.4 133.7L307.4 133.7L306.2 133.7Q306.2 132.9 306.5 132.3Q306.9 131.6 307.6 131.3Q308.3 130.9 309.2 130.9L309.2 130.9Q310.1 130.9 310.8 131.2Q311.5 131.5 311.9 132.2Q312.2 132.8 312.2 133.7L312.2 133.7Q312.2 134.1 312.1 134.5Q311.9 135.0 311.5 135.3Q311.2 135.7 310.6 135.9Q310.0 136.2 309.2 136.2L309.2 136.2L308.1 136.2ZM309.0 136.4L308.1 136.4L308.1 135.7L309.2 135.7Q310.1 135.7 310.8 135.9Q311.4 136.1 311.7 136.5Q312.1 136.9 312.2 137.3Q312.4 137.8 312.4 138.2L312.4 138.2Q312.4 138.9 312.2 139.5Q311.9 140.0 311.5 140.4Q311.1 140.8 310.5 140.9Q309.9 141.1 309.2 141.1L309.2 141.1Q308.6 141.1 308.0 141.0Q307.4 140.8 307.0 140.4Q306.6 140.1 306.3 139.5Q306.1 139.0 306.1 138.4L306.1 138.4L307.3 138.4Q307.3 138.9 307.6 139.3Q307.8 139.7 308.2 139.9Q308.7 140.1 309.2 140.1L309.2 140.1Q309.8 140.1 310.2 139.9Q310.7 139.7 310.9 139.3Q311.1 138.9 311.1 138.3L311.1 138.3Q311.1 137.6 310.9 137.2Q310.6 136.8 310.1 136.6Q309.6 136.4 309.0 136.4L309.0 136.4ZM314.0 133.5L314.0 133.5L314.0 133.0Q314.0 132.4 314.3 131.9Q314.5 131.5 315.0 131.2Q315.4 130.9 316.1 130.9L316.1 130.9Q316.7 130.9 317.1 131.2Q317.6 131.5 317.8 131.9Q318.1 132.4 318.1 133.0L318.1 133.0L318.1 133.5Q318.1 134.0 317.9 134.5Q317.6 135.0 317.2 135.3Q316.7 135.5 316.1 135.5L316.1 135.5Q315.4 135.5 315.0 135.3Q314.5 135.0 314.3 134.5Q314.0 134.0 314.0 133.5ZM315.0 133.0L315.0 133.0L315.0 133.5Q315.0 133.8 315.1 134.1Q315.2 134.4 315.4 134.5Q315.7 134.7 316.1 134.7L316.1 134.7Q316.4 134.7 316.7 134.5Q316.9 134.4 317.0 134.1Q317.1 133.8 317.1 133.5L317.1 133.5L317.1 133.0Q317.1 132.6 317.0 132.4Q316.9 132.1 316.7 131.9Q316.4 131.7 316.1 131.7L316.1 131.7Q315.7 131.7 315.4 131.9Q315.2 132.1 315.1 132.4Q315.0 132.6 315.0 133.0ZM318.9 139.1L318.9 139.1L318.9 138.6Q318.9 138.0 319.1 137.5Q319.4 137.1 319.8 136.8Q320.3 136.5 320.9 136.5L320.9 136.5Q321.5 136.5 322.0 136.8Q322.4 137.1 322.7 137.5Q322.9 138.0 322.9 138.6L322.9 138.6L322.9 139.1Q322.9 139.7 322.7 140.1Q322.5 140.6 322.0 140.9Q321.5 141.1 320.9 141.1L320.9 141.1Q320.3 141.1 319.8 140.9Q319.4 140.6 319.1 140.1Q318.9 139.7 318.9 139.1ZM319.8 138.6L319.8 138.6L319.8 139.1Q319.8 139.4 319.9 139.7Q320.0 140.0 320.3 140.1Q320.5 140.3 320.9 140.3L320.9 140.3Q321.3 140.3 321.5 140.1Q321.8 140.0 321.9 139.7Q322.0 139.4 322.0 139.1L322.0 139.1L322.0 138.6Q322.0 138.2 321.9 138.0Q321.8 137.7 321.5 137.5Q321.3 137.3 320.9 137.3L320.9 137.3Q320.5 137.3 320.3 137.5Q320.0 137.7 319.9 138.0Q319.8 138.2 319.8 138.6ZM320.5 132.0L321.2 132.5L316.4 140.2L315.6 139.8L320.5 132.0Z "/></g><mask id="satori_om-id-2-7"><rect x="348" y="128" width="92" height="16" fill="#fff"/></mask><mask id="satori_om-id-2-7-0"><rect x="348" y="131" width="10" height="10" fill="#fff"/></mask><path x="348" y="131" width="10" height="10" fill="#b07219" d="M353,131 h0 a5,5 0 0 1 5,5 v0 a5,5 0 0 1 -5,5 h0 a5,5 0 0 1 -5,-5 v0 a5,5 0 0 1 5,-5"/><mask id="satori_om-id-2-7-1"><rect x="366" y="128" width="30" height="16" fill="#fff"/></mask><g  ><path fill="black" d="M370.9 137.9L370.9 137.9L370.9 131.0L373.0 131.0L373.0 137.9Q373.0 138.9 372.5 139.7Q372.1 140.4 371.3 140.8Q370.6 141.1 369.6 141.1L369.6 141.1Q368.7 141.1 367.9 140.8Q367.1 140.5 366.7 139.8Q366.3 139.1 366.3 138.1L366.3 138.1L368.3 138.1Q368.3 138.6 368.5 138.9Q368.7 139.3 368.9 139.4Q369.2 139.5 369.6 139.5L369.6 139.5Q370.0 139.5 370.3 139.4Q370.6 139.2 370.8 138.8Q370.9 138.5 370.9 137.9ZM378.6 139.3L378.6 139.3L378.6 136.0Q378.6 135.7 378.5 135.4Q378.3 135.2 378.1 135.0Q377.9 134.9 377.5 134.9L377.5 134.9Q377.1 134.9 376.9 135.0Q376.7 135.1 376.5 135.3Q376.4 135.5 376.4 135.8L376.4 135.8L374.4 135.8Q374.4 135.3 374.7 134.9Q374.9 134.5 375.3 134.2Q375.7 133.8 376.3 133.7Q376.9 133.5 377.6 133.5L377.6 133.5Q378.4 133.5 379.1 133.8Q379.8 134.0 380.2 134.6Q380.6 135.2 380.6 136.1L380.6 136.1L380.6 139.2Q380.6 139.8 380.6 140.2Q380.7 140.6 380.9 140.9L380.9 140.9L380.9 141L378.9 141Q378.7 140.7 378.6 140.2Q378.6 139.8 378.6 139.3ZM377.7 136.5L378.8 136.5L378.9 137.6L377.8 137.6Q377.4 137.6 377.1 137.7Q376.8 137.8 376.6 137.9Q376.4 138.1 376.3 138.3Q376.2 138.5 376.2 138.8L376.2 138.8Q376.2 139.0 376.4 139.2Q376.5 139.4 376.7 139.6Q376.9 139.7 377.2 139.7L377.2 139.7Q377.7 139.7 378.0 139.5Q378.3 139.3 378.5 139.1Q378.7 138.8 378.7 138.6L378.7 138.6L379.2 139.4Q379.1 139.7 378.9 140.0Q378.7 140.3 378.4 140.5Q378.1 140.8 377.7 141.0Q377.3 141.1 376.8 141.1L376.8 141.1Q376.1 141.1 375.5 140.9Q374.9 140.6 374.6 140.1Q374.3 139.6 374.3 138.9L374.3 138.9Q374.3 138.3 374.5 137.9Q374.7 137.4 375.1 137.1Q375.6 136.8 376.2 136.7Q376.8 136.5 377.7 136.5L377.7 136.5ZM384.6 141L384.6 139.6L386.2 133.6L388.3 133.6L385.8 141L384.6 141ZM381.4 133.6L383.5 133.6L385.1 139.6L385.1 141L383.9 141L381.4 133.6ZM393.2 139.3L393.2 139.3L393.2 136.0Q393.2 135.7 393.0 135.4Q392.9 135.2 392.7 135.0Q392.4 134.9 392.1 134.9L392.1 134.9Q391.7 134.9 391.5 135.0Q391.3 135.1 391.1 135.3Q391.0 135.5 391.0 135.8L391.0 135.8L389.0 135.8Q389.0 135.3 389.2 134.9Q389.5 134.5 389.9 134.2Q390.3 133.8 390.9 133.7Q391.5 133.5 392.2 133.5L392.2 133.5Q393.0 133.5 393.7 133.8Q394.4 134.0 394.8 134.6Q395.1 135.2 395.1 136.1L395.1 136.1L395.1 139.2Q395.1 139.8 395.2 140.2Q395.3 140.6 395.4 140.9L395.4 140.9L395.4 141L393.4 141Q393.3 140.7 393.2 140.2Q393.2 139.8 393.2 139.3ZM392.3 136.5L393.4 136.5L393.4 137.6L392.3 137.6Q391.9 137.6 391.7 137.7Q391.4 137.8 391.2 137.9Q391.0 138.1 390.9 138.3Q390.8 138.5 390.8 138.8L390.8 138.8Q390.8 139.0 390.9 139.2Q391.1 139.4 391.3 139.6Q391.5 139.7 391.8 139.7L391.8 139.7Q392.2 139.7 392.6 139.5Q392.9 139.3 393.1 139.1Q393.3 138.8 393.3 138.6L393.3 138.6L393.8 139.4Q393.7 139.7 393.5 140.0Q393.3 140.3 393.0 140.5Q392.7 140.8 392.3 141.0Q391.9 141.1 391.4 141.1L391.4 141.1Q390.7 141.1 390.1 140.9Q389.5 140.6 389.2 140.1Q388.9 139.6 388.9 138.9L388.9 138.9Q388.9 138.3 389.1 137.9Q389.3 137.4 389.7 137.1Q390.1 136.8 390.8 136.7Q391.4 136.5 392.3 136.5L392.3 136.5Z "/></g><mask id="satori_om-id-2-7-2"><rect x="402" y="128" width="38" height="16" fill="#fff"/></mask><g  ><path fill="#8b949e" d="M406.8 131.0L407.0 131.0L407.0 141L405.7 141L405.7 132.6L403.2 133.5L403.2 132.4L406.8 131.0ZM410.9 140.3L410.9 140.3Q410.9 140.0 411.1 139.8Q411.3 139.6 411.6 139.6L411.6 139.6Q412.0 139.6 412.2 139.8Q412.4 140.0 412.4 140.3L412.4 140.3Q412.4 140.6 412.2 140.9Q412.0 141.1 411.6 141.1L411.6 141.1Q411.3 141.1 411.1 140.9Q410.9 140.6 410.9 140.3ZM420.7 138.3L420.7 138.3Q420.7 139.2 420.2 139.8Q419.8 140.5 419.1 140.8Q418.4 141.1 417.5 141.1L417.5 141.1Q416.6 141.1 415.9 140.8Q415.2 140.5 414.7 139.8Q414.3 139.2 414.3 138.3L414.3 138.3Q414.3 137.7 414.6 137.2Q414.8 136.7 415.2 136.4Q415.6 136.0 416.2 135.8Q416.8 135.6 417.5 135.6L417.5 135.6Q418.4 135.6 419.1 135.9Q419.8 136.3 420.2 136.9Q420.7 137.5 420.7 138.3ZM419.4 138.3L419.4 138.3Q419.4 137.7 419.2 137.3Q418.9 136.9 418.5 136.6Q418.1 136.4 417.5 136.4L417.5 136.4Q416.9 136.4 416.5 136.6Q416.1 136.9 415.8 137.3Q415.6 137.7 415.6 138.3L415.6 138.3Q415.6 138.9 415.8 139.3Q416.1 139.7 416.5 139.9Q416.9 140.1 417.5 140.1L417.5 140.1Q418.1 140.1 418.5 139.9Q418.9 139.7 419.2 139.3Q419.4 138.9 419.4 138.3ZM420.4 133.6L420.4 133.6Q420.4 134.4 420.0 134.9Q419.7 135.5 419.0 135.9Q418.3 136.2 417.5 136.2L417.5 136.2Q416.6 136.2 416.0 135.9Q415.3 135.5 414.9 134.9Q414.6 134.4 414.6 133.6L414.6 133.6Q414.6 132.8 414.9 132.2Q415.3 131.6 416.0 131.2Q416.6 130.9 417.5 130.9L417.5 130.9Q418.3 130.9 419.0 131.2Q419.7 131.6 420.1 132.2Q420.4 132.8 420.4 133.6ZM419.2 133.7L419.2 133.7Q419.2 133.2 419.0 132.8Q418.7 132.4 418.4 132.2Q418.0 131.9 417.5 131.9L417.5 131.9Q417.0 131.9 416.6 132.2Q416.2 132.4 416.0 132.7Q415.8 133.1 415.8 133.7L415.8 133.7Q415.8 134.2 416.0 134.6Q416.2 134.9 416.6 135.1Q417.0 135.4 417.5 135.4L417.5 135.4Q418.0 135.4 418.4 135.1Q418.7 134.9 419.0 134.6Q419.2 134.2 419.2 133.7ZM426.2 131.0L426.4 131.0L426.4 141L425.1 141L425.1 132.6L422.6 133.5L422.6 132.4L426.2 131.0ZM430.0 133.5L430.0 133.5L430.0 133.0Q430.0 132.4 430.3 131.9Q430.5 131.5 431.0 131.2Q431.4 130.9 432.1 130.9L432.1 130.9Q432.7 130.9 433.1 131.2Q433.6 131.5 433.8 131.9Q434.1 132.4 434.1 133.0L434.1 133.0L434.1 133.5Q434.1 134.0 433.9 134.5Q433.6 135.0 433.2 135.3Q432.7 135.5 432.1 135.5L432.1 135.5Q431.4 135.5 431.0 135.3Q430.5 135.0 430.3 134.5Q430.0 134.0 430.0 133.5ZM431.0 133.0L431.0 133.0L431.0 133.5Q431.0 133.8 431.1 134.1Q431.2 134.4 431.4 134.5Q431.7 134.7 432.1 134.7L432.1 134.7Q432.4 134.7 432.7 134.5Q432.9 134.4 433.0 134.1Q433.1 133.8 433.1 133.5L433.1 133.5L433.1 133.0Q433.1 132.6 433.0 132.4Q432.9 132.1 432.7 131.9Q432.4 131.7 432.1 131.7L432.1 131.7Q431.7 131.7 431.4 131.9Q431.2 132.1 431.1 132.4Q431.0 132.6 431.0 133.0ZM434.9 139.1L434.9 139.1L434.9 138.6Q434.9 138.0 435.1 137.5Q435.4 137.1 435.8 136.8Q436.3 136.5 436.9 136.5L436.9 136.5Q437.5 136.5 438.0 136.8Q438.4 137.1 438.7 137.5Q438.9 138.0 438.9 138.6L438.9 138.6L438.9 139.1Q438.9 139.7 438.7 140.1Q438.5 140.6 438.0 140.9Q437.5 141.1 436.9 141.1L436.9 141.1Q436.3 141.1 435.8 140.9Q435.4 140.6 435.1 140.1Q434.9 139.7 434.9 139.1ZM435.8 138.6L435.8 138.6L435.8 139.1Q435.8 139.4 435.9 139.7Q436.0 140.0 436.3 140.1Q436.5 140.3 436.9 140.3L436.9 140.3Q437.3 140.3 437.5 140.1Q437.8 140.0 437.9 139.7Q438.0 139.4 438.0 139.1L438.0 139.1L438.0 138.6Q438.0 138.2 437.9 138.0Q437.8 137.7 437.5 137.5Q437.3 137.3 436.9 137.3L436.9 137.3Q436.5 137.3 436.3 137.5Q436.0 137.7 435.9 138.0Q435.8 138.2 435.8 138.6ZM436.5 132.0L437.2 132.5L432.4 140.2L431.6 139.8L436.5 132.0Z "/></g><mask id="satori_om-id-2-8"><rect x="464" y="128" width="106" height="16" fill="#fff"/></mask><mask id="satori_om-id-2-8-0"><rect x="464" y="131" width="10" height="10" fill="#fff"/></mask><path x="464" y="131" width="10" height="10" fill="#DA3434" d="M469,131 h0 a5,5 0 0 1 5,5 v0 a5,5 0 0 1 -5,5 h0 a5,5 0 0 1 -5,-5 v0 a5,5 0 0 1 5,-5"/><mask id="satori_om-id-2-8-1"><rect x="482" y="128" width="44" height="16" fill="#fff"/></mask><g  ><path fill="black" d="M488.7 137.7L488.7 137.7L490.7 137.7Q490.6 138.7 490.2 139.5Q489.7 140.3 488.8 140.7Q487.9 141.1 486.7 141.1L486.7 141.1Q485.7 141.1 485.0 140.8Q484.2 140.5 483.7 139.9Q483.1 139.2 482.9 138.3Q482.6 137.5 482.6 136.4L482.6 136.4L482.6 135.7Q482.6 134.6 482.9 133.7Q483.2 132.8 483.7 132.2Q484.3 131.6 485.0 131.2Q485.8 130.9 486.7 130.9L486.7 130.9Q488.0 130.9 488.8 131.4Q489.7 131.8 490.1 132.6Q490.6 133.4 490.7 134.4L490.7 134.4L488.7 134.4Q488.6 133.8 488.4 133.4Q488.2 133.0 487.8 132.7Q487.4 132.5 486.7 132.5L486.7 132.5Q486.2 132.5 485.8 132.7Q485.4 132.9 485.2 133.3Q484.9 133.7 484.8 134.3Q484.7 134.9 484.7 135.7L484.7 135.7L484.7 136.4Q484.7 137.1 484.8 137.7Q484.9 138.3 485.1 138.7Q485.4 139.1 485.8 139.3Q486.1 139.5 486.7 139.5L486.7 139.5Q487.3 139.5 487.8 139.3Q488.2 139.1 488.4 138.7Q488.6 138.3 488.7 137.7ZM496.6 141L493.0 131.0L494.7 131.0L497.3 138.4L499.8 131.0L501.6 131.0L498.0 141L496.6 141ZM492.0 141L492.0 131.0L493.8 131.0L494.1 138.2L494.1 141L492.0 141ZM500.5 138.2L500.8 131.0L502.5 131.0L502.5 141L500.5 141L500.5 138.2ZM508.2 139.3L508.2 139.3L508.2 136.0Q508.2 135.7 508.1 135.4Q507.9 135.2 507.7 135.0Q507.5 134.9 507.1 134.9L507.1 134.9Q506.7 134.9 506.5 135.0Q506.3 135.1 506.1 135.3Q506.0 135.5 506.0 135.8L506.0 135.8L504.0 135.8Q504.0 135.3 504.3 134.9Q504.5 134.5 504.9 134.2Q505.3 133.8 505.9 133.7Q506.5 133.5 507.2 133.5L507.2 133.5Q508.0 133.5 508.7 133.8Q509.4 134.0 509.8 134.6Q510.2 135.2 510.2 136.1L510.2 136.1L510.2 139.2Q510.2 139.8 510.2 140.2Q510.3 140.6 510.5 140.9L510.5 140.9L510.5 141L508.5 141Q508.3 140.7 508.2 140.2Q508.2 139.8 508.2 139.3ZM507.3 136.5L508.4 136.5L508.4 137.6L507.3 137.6Q507.0 137.6 506.7 137.7Q506.4 137.8 506.2 137.9Q506.0 138.1 505.9 138.3Q505.8 138.5 505.8 138.8L505.8 138.8Q505.8 139.0 506.0 139.2Q506.1 139.4 506.3 139.6Q506.5 139.7 506.8 139.7L506.8 139.7Q507.3 139.7 507.6 139.5Q507.9 139.3 508.1 139.1Q508.3 138.8 508.3 138.6L508.3 138.6L508.8 139.4Q508.7 139.7 508.5 140.0Q508.3 140.3 508.0 140.5Q507.7 140.8 507.3 141.0Q506.9 141.1 506.4 141.1L506.4 141.1Q505.7 141.1 505.1 140.9Q504.5 140.6 504.2 140.1Q503.9 139.6 503.9 138.9L503.9 138.9Q503.9 138.3 504.1 137.9Q504.3 137.4 504.7 137.1Q505.2 136.8 505.8 136.7Q506.4 136.5 507.3 136.5L507.3 136.5ZM511.7 130.5L513.6 130.5L513.6 141L511.7 141L511.7 130.5ZM515.9 133.6L518.3 133.6L515.1 137.3L513.4 139.0L512.7 137.6L514.0 135.9L515.9 133.6ZM518.5 141L516.3 141L514.1 137.6L515.4 136.4L518.5 141ZM522.6 141.1L522.6 141.1Q521.7 141.1 521.0 140.9Q520.3 140.6 519.9 140.1Q519.4 139.6 519.1 138.9Q518.9 138.3 518.9 137.6L518.9 137.6L518.9 137.3Q518.9 136.4 519.1 135.7Q519.4 135.0 519.8 134.5Q520.2 134.0 520.9 133.7Q521.5 133.5 522.3 133.5L522.3 133.5Q523.1 133.5 523.7 133.7Q524.3 134.0 524.8 134.5Q525.2 134.9 525.4 135.6Q525.6 136.3 525.6 137.1L525.6 137.1L525.6 137.9L519.7 137.9L519.7 136.6L523.7 136.6L523.7 136.4Q523.7 136.0 523.5 135.7Q523.4 135.4 523.1 135.2Q522.8 135.0 522.3 135.0L522.3 135.0Q521.9 135.0 521.6 135.2Q521.4 135.3 521.2 135.7Q521.0 136.0 520.9 136.4Q520.8 136.8 520.8 137.3L520.8 137.3L520.8 137.6Q520.8 138.0 521.0 138.4Q521.1 138.8 521.3 139.0Q521.6 139.3 521.9 139.4Q522.3 139.6 522.7 139.6L522.7 139.6Q523.2 139.6 523.7 139.4Q524.1 139.2 524.5 138.8L524.5 138.8L525.4 139.8Q525.2 140.1 524.8 140.4Q524.4 140.7 523.8 140.9Q523.3 141.1 522.6 141.1Z "/></g><mask id="satori_om-id-2-8-2"><rect x="532" y="128" width="38" height="16" fill="#fff"/></mask><g  ><path fill="#8b949e" d="M536.8 131.0L537.0 131.0L537.0 141L535.7 141L535.7 132.6L533.2 133.5L533.2 132.4L536.8 131.0ZM540.9 140.3L540.9 140.3Q540.9 140.0 541.1 139.8Q541.3 139.6 541.6 139.6L541.6 139.6Q542.0 139.6 542.2 139.8Q542.4 140.0 542.4 140.3L542.4 140.3Q542.4 140.6 542.2 140.9Q542.0 141.1 541.6 141.1L541.6 141.1Q541.3 141.1 541.1 140.9Q540.9 140.6 540.9 140.3ZM546.2 136.2L546.2 135.4L547.1 135.4Q547.8 135.4 548.2 135.2Q548.7 135.0 548.9 134.6Q549.1 134.2 549.1 133.7L549.1 133.7Q549.1 133.1 548.9 132.7Q548.7 132.3 548.3 132.1Q547.9 131.9 547.4 131.9L547.4 131.9Q546.8 131.9 546.4 132.2Q546.0 132.4 545.8 132.7Q545.6 133.1 545.6 133.7L545.6 133.7L544.3 133.7Q544.3 132.9 544.7 132.3Q545.1 131.6 545.8 131.3Q546.4 130.9 547.4 130.9L547.4 130.9Q548.3 130.9 548.9 131.2Q549.6 131.5 550.0 132.2Q550.4 132.8 550.4 133.7L550.4 133.7Q550.4 134.1 550.2 134.5Q550.0 135.0 549.7 135.3Q549.3 135.7 548.7 135.9Q548.1 136.2 547.3 136.2L547.3 136.2L546.2 136.2ZM547.1 136.4L546.2 136.4L546.2 135.7L547.3 135.7Q548.3 135.7 548.9 135.9Q549.5 136.1 549.9 136.5Q550.2 136.9 550.4 137.3Q550.5 137.8 550.5 138.2L550.5 138.2Q550.5 138.9 550.3 139.5Q550.0 140.0 549.6 140.4Q549.2 140.8 548.6 140.9Q548.0 141.1 547.4 141.1L547.4 141.1Q546.7 141.1 546.1 141.0Q545.6 140.8 545.1 140.4Q544.7 140.1 544.5 139.5Q544.2 139.0 544.2 138.4L544.2 138.4L545.5 138.4Q545.5 138.9 545.7 139.3Q545.9 139.7 546.4 139.9Q546.8 140.1 547.4 140.1L547.4 140.1Q547.9 140.1 548.4 139.9Q548.8 139.7 549.0 139.3Q549.2 138.9 549.2 138.3L549.2 138.3Q549.2 137.6 549.0 137.2Q548.7 136.8 548.3 136.6Q547.8 136.4 547.1 136.4L547.1 136.4ZM553.2 137.7L559.0 137.7L559.0 138.7L551.8 138.7L551.8 137.9L556.2 131.0L557.3 131.0L556.2 133.0L553.2 137.7ZM556.3 131.0L557.6 131.0L557.6 141L556.3 141L556.3 131.0ZM560.0 133.5L560.0 133.5L560.0 133.0Q560.0 132.4 560.3 131.9Q560.5 131.5 561.0 131.2Q561.4 130.9 562.1 130.9L562.1 130.9Q562.7 130.9 563.1 131.2Q563.6 131.5 563.8 131.9Q564.1 132.4 564.1 133.0L564.1 133.0L564.1 133.5Q564.1 134.0 563.9 134.5Q563.6 135.0 563.2 135.3Q562.7 135.5 562.1 135.5L562.1 135.5Q561.4 135.5 561.0 135.3Q560.5 135.0 560.3 134.5Q560.0 134.0 560.0 133.5ZM561.0 133.0L561.0 133.0L561.0 133.5Q561.0 133.8 561.1 134.1Q561.2 134.4 561.4 134.5Q561.7 134.7 562.1 134.7L562.1 134.7Q562.4 134.7 562.7 134.5Q562.9 134.4 563.0 134.1Q563.1 133.8 563.1 133.5L563.1 133.5L563.1 133.0Q563.1 132.6 563.0 132.4Q562.9 132.1 562.7 131.9Q562.4 131.7 562.1 131.7L562.1 131.7Q561.7 131.7 561.4 131.9Q561.2 132.1 561.1 132.4Q561.0 132.6 561.0 133.0ZM564.9 139.1L564.9 139.1L564.9 138.6Q564.9 138.0 565.1 137.5Q565.4 137.1 565.8 136.8Q566.3 136.5 566.9 136.5L566.9 136.5Q567.5 136.5 568.0 136.8Q568.4 137.1 568.7 137.5Q568.9 138.0 568.9 138.6L568.9 138.6L568.9 139.1Q568.9 139.7 568.7 140.1Q568.5 140.6 568.0 140.9Q567.5 141.1 566.9 141.1L566.9 141.1Q566.3 141.1 565.8 140.9Q565.4 140.6 565.1 140.1Q564.9 139.7 564.9 139.1ZM565.8 138.6L565.8 138.6L565.8 139.1Q565.8 139.4 565.9 139.7Q566.0 140.0 566.3 140.1Q566.5 140.3 566.9 140.3L566.9 140.3Q567.3 140.3 567.5 140.1Q567.8 140.0 567.9 139.7Q568.0 139.4 568.0 139.1L568.0 139.1L568.0 138.6Q568.0 138.2 567.9 138.0Q567.8 137.7 567.5 137.5Q567.3 137.3 566.9 137.3L566.9 137.3Q566.5 137.3 566.3 137.5Q566.0 137.7 565.9 138.0Q565.8 138.2 565.8 138.6ZM566.5 132.0L567.2 132.5L562.4 140.2L561.6 139.8L566.5 132.0Z "/></g><mask id="satori_om-id-2-9"><rect x="21" y="168" width="117" height="16" fill="#fff"/></mask><mask id="satori_om-id-2-9-0"><rect x="21" y="171" width="10" height="10" fill="#fff"/></mask><path x="21" y="171" width="10" height="10" fill="#427819" d="M26,171 h0 a5,5 0 0 1 5,5 v0 a5,5 0 0 1 -5,5 h0 a5,5 0 0 1 -5,-5 v0 a5,5 0 0 1 5,-5"/><mask id="satori_om-id-2-9-1"><rect x="39" y="168" width="55" height="16" fill="#fff"/></mask><g  ><path fill="black" d="M44.4 181L40.8 171.0L42.6 171.0L45.1 178.4L47.7 171.0L49.4 171.0L45.8 181L44.4 181ZM39.9 181L39.9 171.0L41.6 171.0L41.9 178.2L41.9 181L39.9 181ZM48.3 178.2L48.6 171.0L50.4 171.0L50.4 181L48.3 181L48.3 178.2ZM56.0 179.3L56.0 179.3L56.0 176.0Q56.0 175.7 55.9 175.4Q55.8 175.2 55.5 175.0Q55.3 174.9 54.9 174.9L54.9 174.9Q54.6 174.9 54.3 175.0Q54.1 175.1 54.0 175.3Q53.8 175.5 53.8 175.8L53.8 175.8L51.9 175.8Q51.9 175.3 52.1 174.9Q52.3 174.5 52.7 174.2Q53.2 173.8 53.7 173.7Q54.3 173.5 55.0 173.5L55.0 173.5Q55.9 173.5 56.6 173.8Q57.2 174.0 57.6 174.6Q58.0 175.2 58.0 176.1L58.0 176.1L58.0 179.2Q58.0 179.8 58.1 180.2Q58.1 180.6 58.3 180.9L58.3 180.9L58.3 181L56.3 181Q56.2 180.7 56.1 180.2Q56.0 179.8 56.0 179.3ZM55.1 176.5L56.3 176.5L56.3 177.6L55.2 177.6Q54.8 177.6 54.5 177.7Q54.2 177.8 54.0 177.9Q53.9 178.1 53.8 178.3Q53.7 178.5 53.7 178.8L53.7 178.8Q53.7 179.0 53.8 179.2Q53.9 179.4 54.1 179.6Q54.4 179.7 54.6 179.7L54.6 179.7Q55.1 179.7 55.4 179.5Q55.7 179.3 55.9 179.1Q56.1 178.8 56.1 178.6L56.1 178.6L56.6 179.4Q56.5 179.7 56.3 180.0Q56.2 180.3 55.9 180.5Q55.6 180.8 55.2 181.0Q54.8 181.1 54.2 181.1L54.2 181.1Q53.5 181.1 52.9 180.9Q52.4 180.6 52.0 180.1Q51.7 179.6 51.7 178.9L51.7 178.9Q51.7 178.3 51.9 177.9Q52.1 177.4 52.6 177.1Q53 176.8 53.6 176.7Q54.3 176.5 55.1 176.5L55.1 176.5ZM59.5 170.5L61.5 170.5L61.5 181L59.5 181L59.5 170.5ZM63.8 173.6L66.1 173.6L62.9 177.3L61.2 179.0L60.5 177.6L61.9 175.9L63.8 173.6ZM66.4 181L64.1 181L61.9 177.6L63.3 176.4L66.4 181ZM70.4 181.1L70.4 181.1Q69.5 181.1 68.9 180.9Q68.2 180.6 67.7 180.1Q67.2 179.6 67.0 178.9Q66.7 178.3 66.7 177.6L66.7 177.6L66.7 177.3Q66.7 176.4 67.0 175.7Q67.2 175.0 67.6 174.5Q68.1 174.0 68.7 173.7Q69.4 173.5 70.2 173.5L70.2 173.5Q71.0 173.5 71.6 173.7Q72.2 174.0 72.6 174.5Q73.0 174.9 73.2 175.6Q73.4 176.3 73.4 177.1L73.4 177.1L73.4 177.9L67.6 177.9L67.6 176.6L71.5 176.6L71.5 176.4Q71.5 176.0 71.4 175.7Q71.2 175.4 70.9 175.2Q70.6 175.0 70.2 175.0L70.2 175.0Q69.8 175.0 69.5 175.2Q69.2 175.3 69.0 175.7Q68.9 176.0 68.8 176.4Q68.7 176.8 68.7 177.3L68.7 177.3L68.7 177.6Q68.7 178.0 68.8 178.4Q68.9 178.8 69.2 179.0Q69.4 179.3 69.8 179.4Q70.1 179.6 70.5 179.6L70.5 179.6Q71.1 179.6 71.5 179.4Q72.0 179.2 72.3 178.8L72.3 178.8L73.3 179.8Q73.0 180.1 72.6 180.4Q72.2 180.7 71.7 180.9Q71.1 181.1 70.4 181.1ZM77.1 172.9L77.1 181L75.1 181L75.1 172.9Q75.1 172.1 75.4 171.5Q75.7 171.0 76.3 170.7Q77.0 170.4 77.8 170.4L77.8 170.4Q78.1 170.4 78.3 170.4Q78.6 170.4 78.8 170.5L78.8 170.5L78.8 172.0Q78.7 171.9 78.5 171.9Q78.4 171.9 78.2 171.9L78.2 171.9Q77.8 171.9 77.6 172.0Q77.3 172.1 77.2 172.4Q77.1 172.6 77.1 172.9L77.1 172.9ZM74.0 173.6L78.5 173.6L78.5 175.0L74.0 175.0L74.0 173.6ZM79.7 173.6L81.6 173.6L81.6 181L79.7 181L79.7 173.6ZM79.5 171.7L79.5 171.7Q79.5 171.2 79.8 171.0Q80.1 170.7 80.7 170.7L80.7 170.7Q81.2 170.7 81.5 171.0Q81.8 171.2 81.8 171.7L81.8 171.7Q81.8 172.1 81.5 172.4Q81.2 172.7 80.7 172.7L80.7 172.7Q80.1 172.7 79.8 172.4Q79.5 172.1 79.5 171.7ZM83.4 170.5L85.3 170.5L85.3 181L83.4 181L83.4 170.5ZM90.4 181.1L90.4 181.1Q89.5 181.1 88.8 180.9Q88.2 180.6 87.7 180.1Q87.2 179.6 86.9 178.9Q86.7 178.3 86.7 177.6L86.7 177.6L86.7 177.3Q86.7 176.4 86.9 175.7Q87.2 175.0 87.6 174.5Q88.1 174.0 88.7 173.7Q89.4 173.5 90.2 173.5L90.2 173.5Q90.9 173.5 91.6 173.7Q92.2 174.0 92.6 174.5Q93.0 174.9 93.2 175.6Q93.4 176.3 93.4 177.1L93.4 177.1L93.4 177.9L87.5 177.9L87.5 176.6L91.5 176.6L91.5 176.4Q91.5 176.0 91.3 175.7Q91.2 175.4 90.9 175.2Q90.6 175.0 90.1 175.0L90.1 175.0Q89.8 175.0 89.5 175.2Q89.2 175.3 89.0 175.7Q88.8 176.0 88.8 176.4Q88.7 176.8 88.7 177.3L88.7 177.3L88.7 177.6Q88.7 178.0 88.8 178.4Q88.9 178.8 89.2 179.0Q89.4 179.3 89.7 179.4Q90.1 179.6 90.5 179.6L90.5 179.6Q91.0 179.6 91.5 179.4Q92.0 179.2 92.3 178.8L92.3 178.8L93.3 179.8Q93.0 180.1 92.6 180.4Q92.2 180.7 91.7 180.9Q91.1 181.1 90.4 181.1Z "/></g><mask id="satori_om-id-2-9-2"><rect x="100" y="168" width="38" height="16" fill="#fff"/></mask><g  ><path fill="#8b949e" d="M104.8 171.0L105.0 171.0L105.0 181L103.7 181L103.7 172.6L101.2 173.5L101.2 172.4L104.8 171.0ZM108.9 180.3L108.9 180.3Q108.9 180.0 109.1 179.8Q109.3 179.6 109.6 179.6L109.6 179.6Q110.0 179.6 110.2 179.8Q110.4 180.0 110.4 180.3L110.4 180.3Q110.4 180.6 110.2 180.9Q110.0 181.1 109.6 181.1L109.6 181.1Q109.3 181.1 109.1 180.9Q108.9 180.6 108.9 180.3ZM116.3 171.0L116.5 171.0L116.5 181L115.3 181L115.3 172.6L112.7 173.5L112.7 172.4L116.3 171.0ZM121.9 176.3L121.9 176.3L120.8 176.0L121.3 171.0L126.4 171.0L126.4 172.2L122.4 172.2L122.1 174.9Q122.4 174.8 122.8 174.6Q123.2 174.5 123.8 174.5L123.8 174.5Q124.5 174.5 125.0 174.7Q125.6 175.0 125.9 175.4Q126.3 175.8 126.5 176.5Q126.7 177.1 126.7 177.8L126.7 177.8Q126.7 178.5 126.5 179.1Q126.4 179.7 126.0 180.2Q125.6 180.6 125.0 180.9Q124.4 181.1 123.6 181.1L123.6 181.1Q123.0 181.1 122.5 181.0Q121.9 180.8 121.5 180.5Q121.1 180.1 120.8 179.6Q120.5 179.1 120.5 178.4L120.5 178.4L121.7 178.4Q121.8 178.9 122.0 179.3Q122.3 179.7 122.7 179.9Q123.1 180.1 123.6 180.1L123.6 180.1Q124.0 180.1 124.4 179.9Q124.7 179.8 125.0 179.5Q125.2 179.2 125.3 178.8Q125.5 178.4 125.5 177.8L125.5 177.8Q125.5 177.4 125.3 177.0Q125.2 176.6 125.0 176.3Q124.7 176.0 124.3 175.8Q124.0 175.6 123.5 175.6L123.5 175.6Q122.8 175.6 122.5 175.8Q122.2 176.0 121.9 176.3ZM128.0 173.5L128.0 173.5L128.0 173.0Q128.0 172.4 128.3 171.9Q128.5 171.5 129.0 171.2Q129.4 170.9 130.1 170.9L130.1 170.9Q130.7 170.9 131.1 171.2Q131.6 171.5 131.8 171.9Q132.1 172.4 132.1 173.0L132.1 173.0L132.1 173.5Q132.1 174.0 131.9 174.5Q131.6 175.0 131.2 175.3Q130.7 175.5 130.1 175.5L130.1 175.5Q129.4 175.5 129.0 175.3Q128.5 175.0 128.3 174.5Q128.0 174.0 128.0 173.5ZM129.0 173.0L129.0 173.0L129.0 173.5Q129.0 173.8 129.1 174.1Q129.2 174.4 129.4 174.5Q129.7 174.7 130.1 174.7L130.1 174.7Q130.4 174.7 130.7 174.5Q130.9 174.4 131.0 174.1Q131.1 173.8 131.1 173.5L131.1 173.5L131.1 173.0Q131.1 172.6 131.0 172.4Q130.9 172.1 130.7 171.9Q130.4 171.7 130.1 171.7L130.1 171.7Q129.7 171.7 129.4 171.9Q129.2 172.1 129.1 172.4Q129.0 172.6 129.0 173.0ZM132.9 179.1L132.9 179.1L132.9 178.6Q132.9 178.0 133.1 177.5Q133.4 177.1 133.8 176.8Q134.3 176.5 134.9 176.5L134.9 176.5Q135.5 176.5 136.0 176.8Q136.4 177.1 136.7 177.5Q136.9 178.0 136.9 178.6L136.9 178.6L136.9 179.1Q136.9 179.7 136.7 180.1Q136.5 180.6 136.0 180.9Q135.5 181.1 134.9 181.1L134.9 181.1Q134.3 181.1 133.8 180.9Q133.4 180.6 133.1 180.1Q132.9 179.7 132.9 179.1ZM133.8 178.6L133.8 178.6L133.8 179.1Q133.8 179.4 133.9 179.7Q134.0 180.0 134.3 180.1Q134.5 180.3 134.9 180.3L134.9 180.3Q135.3 180.3 135.5 180.1Q135.8 180.0 135.9 179.7Q136.0 179.4 136.0 179.1L136.0 179.1L136.0 178.6Q136.0 178.2 135.9 178.0Q135.8 177.7 135.5 177.5Q135.3 177.3 134.9 177.3L134.9 177.3Q134.5 177.3 134.3 177.5Q134.0 177.7 133.9 178.0Q133.8 178.2 133.8 178.6ZM134.5 172.0L135.2 172.5L130.4 180.2L129.6 179.8L134.5 172.0Z "/></g><mask id="satori_om-id-2-10"><rect x="162" y="168" width="89" height="16" fill="#fff"/></mask><mask id="satori_om-id-2-10-0"><rect x="162" y="171" width="10" height="10" fill="#fff"/></mask><path x="162" y="171" width="10" height="10" fill="#663399" d="M167,171 h0 a5,5 0 0 1 5,5 v0 a5,5 0 0 1 -5,5 h0 a5,5 0 0 1 -5,-5 v0 a5,5 0 0 1 5,-5"/><mask id="satori_om-id-2-10-1"><rect x="180" y="168" width="27" height="16" fill="#fff"/></mask><g  ><path fill="black" d="M186.7 177.7L186.7 177.7L188.7 177.7Q188.6 178.7 188.2 179.5Q187.7 180.3 186.8 180.7Q185.9 181.1 184.7 181.1L184.7 181.1Q183.7 181.1 183.0 180.8Q182.2 180.5 181.7 179.9Q181.1 179.2 180.9 178.3Q180.6 177.5 180.6 176.4L180.6 176.4L180.6 175.7Q180.6 174.6 180.9 173.7Q181.2 172.8 181.7 172.2Q182.3 171.6 183.0 171.2Q183.8 170.9 184.7 170.9L184.7 170.9Q186.0 170.9 186.8 171.4Q187.7 171.8 188.1 172.6Q188.6 173.4 188.7 174.4L188.7 174.4L186.7 174.4Q186.6 173.8 186.4 173.4Q186.2 173.0 185.8 172.7Q185.4 172.5 184.7 172.5L184.7 172.5Q184.2 172.5 183.8 172.7Q183.4 172.9 183.2 173.3Q182.9 173.7 182.8 174.3Q182.7 174.9 182.7 175.7L182.7 175.7L182.7 176.4Q182.7 177.1 182.8 177.7Q182.9 178.3 183.1 178.7Q183.4 179.1 183.8 179.3Q184.1 179.5 184.7 179.5L184.7 179.5Q185.3 179.5 185.8 179.3Q186.2 179.1 186.4 178.7Q186.6 178.3 186.7 177.7ZM195.2 178.4L195.2 178.4Q195.2 178.1 195.2 177.9Q195.1 177.7 194.9 177.5Q194.6 177.3 194.3 177.2Q193.9 177.0 193.3 176.8L193.3 176.8Q192.6 176.6 192.0 176.3Q191.4 176.0 190.9 175.7Q190.5 175.3 190.2 174.8Q189.9 174.3 189.9 173.7L189.9 173.7Q189.9 173.1 190.2 172.5Q190.5 172.0 191.0 171.7Q191.5 171.3 192.1 171.1Q192.8 170.9 193.6 170.9L193.6 170.9Q194.7 170.9 195.5 171.3Q196.4 171.7 196.8 172.4Q197.3 173.1 197.3 174.0L197.3 174.0L195.2 174.0Q195.2 173.5 195.1 173.2Q194.9 172.9 194.5 172.7Q194.1 172.5 193.6 172.5L193.6 172.5Q193.1 172.5 192.7 172.6Q192.3 172.8 192.2 173.1Q192.0 173.4 192.0 173.7L192.0 173.7Q192.0 173.9 192.1 174.1Q192.2 174.3 192.5 174.5Q192.7 174.7 193.1 174.9Q193.5 175.0 194.0 175.2L194.0 175.2Q194.8 175.4 195.4 175.7Q196.0 176.0 196.4 176.4Q196.9 176.8 197.1 177.3Q197.3 177.8 197.3 178.4L197.3 178.4Q197.3 179.0 197.0 179.5Q196.8 180.1 196.3 180.4Q195.8 180.8 195.2 181.0Q194.5 181.1 193.7 181.1L193.7 181.1Q192.9 181.1 192.2 180.9Q191.5 180.7 190.9 180.4Q190.3 180.0 190.0 179.3Q189.6 178.7 189.6 177.9L189.6 177.9L191.7 177.9Q191.7 178.3 191.8 178.7Q192.0 179.0 192.2 179.2Q192.5 179.4 192.9 179.5Q193.2 179.6 193.7 179.6L193.7 179.6Q194.2 179.6 194.6 179.4Q194.9 179.3 195.1 179.0Q195.2 178.7 195.2 178.4ZM203.9 178.4L203.9 178.4Q203.9 178.1 203.8 177.9Q203.7 177.7 203.5 177.5Q203.3 177.3 202.9 177.2Q202.5 177.0 201.9 176.8L201.9 176.8Q201.2 176.6 200.6 176.3Q200.0 176.0 199.5 175.7Q199.1 175.3 198.8 174.8Q198.6 174.3 198.6 173.7L198.6 173.7Q198.6 173.1 198.8 172.5Q199.1 172.0 199.6 171.7Q200.1 171.3 200.8 171.1Q201.4 170.9 202.2 170.9L202.2 170.9Q203.3 170.9 204.2 171.3Q205.0 171.7 205.4 172.4Q205.9 173.1 205.9 174.0L205.9 174.0L203.9 174.0Q203.9 173.5 203.7 173.2Q203.5 172.9 203.1 172.7Q202.8 172.5 202.2 172.5L202.2 172.5Q201.7 172.5 201.3 172.6Q201.0 172.8 200.8 173.1Q200.6 173.4 200.6 173.7L200.6 173.7Q200.6 173.9 200.7 174.1Q200.9 174.3 201.1 174.5Q201.4 174.7 201.7 174.9Q202.1 175.0 202.6 175.2L202.6 175.2Q203.4 175.4 204.0 175.7Q204.6 176.0 205.1 176.4Q205.5 176.8 205.7 177.3Q205.9 177.8 205.9 178.4L205.9 178.4Q205.9 179.0 205.6 179.5Q205.4 180.1 204.9 180.4Q204.4 180.8 203.8 181.0Q203.1 181.1 202.3 181.1L202.3 181.1Q201.6 181.1 200.8 180.9Q200.1 180.7 199.5 180.4Q198.9 180.0 198.6 179.3Q198.3 178.7 198.3 177.9L198.3 177.9L200.3 177.9Q200.3 178.3 200.5 178.7Q200.6 179.0 200.9 179.2Q201.1 179.4 201.5 179.5Q201.9 179.6 202.3 179.6L202.3 179.6Q202.8 179.6 203.2 179.4Q203.5 179.3 203.7 179.0Q203.9 178.7 203.9 178.4Z "/></g><mask id="satori_om-id-2-10-2"><rect x="213" y="168" width="38" height="16" fill="#fff"/></mask><g  ><path fill="#8b949e" d="M220.1 175.2L220.1 175.2L220.1 176.7Q220.1 178.0 219.9 178.8Q219.6 179.7 219.2 180.2Q218.8 180.7 218.2 180.9Q217.7 181.1 216.9 181.1L216.9 181.1Q216.4 181.1 215.9 181.0Q215.4 180.8 215.0 180.5Q214.6 180.2 214.3 179.7Q214.1 179.2 213.9 178.5Q213.8 177.7 213.8 176.7L213.8 176.7L213.8 175.2Q213.8 174.0 214.0 173.2Q214.2 172.4 214.6 171.9Q215.1 171.3 215.6 171.1Q216.2 170.9 216.9 170.9L216.9 170.9Q217.5 170.9 218.0 171.1Q218.5 171.2 218.9 171.5Q219.2 171.8 219.5 172.3Q219.8 172.8 219.9 173.5Q220.1 174.3 220.1 175.2ZM218.8 177.0L218.8 177.0L218.8 175.0Q218.8 174.3 218.7 173.8Q218.6 173.3 218.5 173.0Q218.3 172.6 218.1 172.4Q217.9 172.2 217.6 172.0Q217.3 171.9 216.9 171.9L216.9 171.9Q216.5 171.9 216.1 172.1Q215.8 172.3 215.5 172.6Q215.3 173.0 215.2 173.6Q215.1 174.2 215.1 175.0L215.1 175.0L215.1 177.0Q215.1 177.6 215.1 178.1Q215.2 178.6 215.4 179.0Q215.5 179.4 215.8 179.6Q216.0 179.9 216.3 180.0Q216.6 180.1 216.9 180.1L216.9 180.1Q217.4 180.1 217.8 179.9Q218.1 179.7 218.3 179.4Q218.6 179.0 218.7 178.4Q218.8 177.8 218.8 177.0ZM221.9 180.3L221.9 180.3Q221.9 180.0 222.1 179.8Q222.3 179.6 222.6 179.6L222.6 179.6Q223.0 179.6 223.2 179.8Q223.4 180.0 223.4 180.3L223.4 180.3Q223.4 180.6 223.2 180.9Q223.0 181.1 222.6 181.1L222.6 181.1Q222.3 181.1 222.1 180.9Q221.9 180.6 221.9 180.3ZM225.1 171.0L231.8 171.0L231.8 171.8L227.7 181L226.4 181L230.5 172.1L225.1 172.1L225.1 171.0ZM234.9 176.3L234.9 176.3L233.8 176.0L234.3 171.0L239.4 171.0L239.4 172.2L235.4 172.2L235.1 174.9Q235.4 174.8 235.8 174.6Q236.2 174.5 236.8 174.5L236.8 174.5Q237.5 174.5 238.0 174.7Q238.6 175.0 238.9 175.4Q239.3 175.8 239.5 176.5Q239.7 177.1 239.7 177.8L239.7 177.8Q239.7 178.5 239.5 179.1Q239.4 179.7 239.0 180.2Q238.6 180.6 238.0 180.9Q237.4 181.1 236.6 181.1L236.6 181.1Q236.0 181.1 235.5 181.0Q234.9 180.8 234.5 180.5Q234.1 180.1 233.8 179.6Q233.5 179.1 233.5 178.4L233.5 178.4L234.7 178.4Q234.8 178.9 235.0 179.3Q235.3 179.7 235.7 179.9Q236.1 180.1 236.6 180.1L236.6 180.1Q237.0 180.1 237.4 179.9Q237.7 179.8 238.0 179.5Q238.2 179.2 238.3 178.8Q238.5 178.4 238.5 177.8L238.5 177.8Q238.5 177.4 238.3 177.0Q238.2 176.6 238.0 176.3Q237.7 176.0 237.3 175.8Q237.0 175.6 236.5 175.6L236.5 175.6Q235.8 175.6 235.5 175.8Q235.2 176.0 234.9 176.3ZM241.0 173.5L241.0 173.5L241.0 173.0Q241.0 172.4 241.3 171.9Q241.5 171.5 242.0 171.2Q242.4 170.9 243.1 170.9L243.1 170.9Q243.7 170.9 244.1 171.2Q244.6 171.5 244.8 171.9Q245.1 172.4 245.1 173.0L245.1 173.0L245.1 173.5Q245.1 174.0 244.9 174.5Q244.6 175.0 244.2 175.3Q243.7 175.5 243.1 175.5L243.1 175.5Q242.4 175.5 242.0 175.3Q241.5 175.0 241.3 174.5Q241.0 174.0 241.0 173.5ZM242.0 173.0L242.0 173.0L242.0 173.5Q242.0 173.8 242.1 174.1Q242.2 174.4 242.4 174.5Q242.7 174.7 243.1 174.7L243.1 174.7Q243.4 174.7 243.7 174.5Q243.9 174.4 244.0 174.1Q244.1 173.8 244.1 173.5L244.1 173.5L244.1 173.0Q244.1 172.6 244.0 172.4Q243.9 172.1 243.7 171.9Q243.4 171.7 243.1 171.7L243.1 171.7Q242.7 171.7 242.4 171.9Q242.2 172.1 242.1 172.4Q242.0 172.6 242.0 173.0ZM245.9 179.1L245.9 179.1L245.9 178.6Q245.9 178.0 246.1 177.5Q246.4 177.1 246.8 176.8Q247.3 176.5 247.9 176.5L247.9 176.5Q248.5 176.5 249.0 176.8Q249.4 177.1 249.7 177.5Q249.9 178.0 249.9 178.6L249.9 178.6L249.9 179.1Q249.9 179.7 249.7 180.1Q249.5 180.6 249.0 180.9Q248.5 181.1 247.9 181.1L247.9 181.1Q247.3 181.1 246.8 180.9Q246.4 180.6 246.1 180.1Q245.9 179.7 245.9 179.1ZM246.8 178.6L246.8 178.6L246.8 179.1Q246.8 179.4 246.9 179.7Q247.0 180.0 247.3 180.1Q247.5 180.3 247.9 180.3L247.9 180.3Q248.3 180.3 248.5 180.1Q248.8 180.0 248.9 179.7Q249.0 179.4 249.0 179.1L249.0 179.1L249.0 178.6Q249.0 178.2 248.9 178.0Q248.8 177.7 248.5 177.5Q248.3 177.3 247.9 177.3L247.9 177.3Q247.5 177.3 247.3 177.5Q247.0 177.7 246.9 178.0Q246.8 178.2 246.8 178.6ZM247.5 172.0L248.2 172.5L243.4 180.2L242.6 179.8L247.5 172.0Z "/></g><mask id="satori_om-id-2-11"><rect x="275" y="168" width="96" height="16" fill="#fff"/></mask><mask id="satori_om-id-2-11-0"><rect x="275" y="171" width="10" height="10" fill="#fff"/></mask><path x="275" y="171" width="10" height="10" fill="#aace60" d="M280,171 h0 a5,5 0 0 1 5,5 v0 a5,5 0 0 1 -5,5 h0 a5,5 0 0 1 -5,-5 v0 a5,5 0 0 1 5,-5"/><mask id="satori_om-id-2-11-1"><rect x="293" y="168" width="34" height="16" fill="#fff"/></mask><g  ><path fill="black" d="M295.3 175.1L300.5 175.1L300.5 176.7L295.3 176.7L295.3 175.1ZM293.9 171.0L295.9 171.0L295.9 181L293.9 181L293.9 171.0ZM299.9 171.0L302.0 171.0L302.0 181L299.9 181L299.9 171.0ZM305.2 179.4L310.2 179.4L310.2 181L305.2 181L305.2 179.4ZM303.8 171.0L305.8 171.0L305.8 181L303.8 181L303.8 171.0ZM316.5 178.4L316.5 178.4Q316.5 178.1 316.5 177.9Q316.4 177.7 316.2 177.5Q315.9 177.3 315.6 177.2Q315.2 177.0 314.6 176.8L314.6 176.8Q313.9 176.6 313.3 176.3Q312.7 176.0 312.2 175.7Q311.8 175.3 311.5 174.8Q311.2 174.3 311.2 173.7L311.2 173.7Q311.2 173.1 311.5 172.5Q311.8 172.0 312.3 171.7Q312.8 171.3 313.4 171.1Q314.1 170.9 314.9 170.9L314.9 170.9Q316.0 170.9 316.8 171.3Q317.7 171.7 318.1 172.4Q318.6 173.1 318.6 174.0L318.6 174.0L316.5 174.0Q316.5 173.5 316.4 173.2Q316.2 172.9 315.8 172.7Q315.4 172.5 314.9 172.5L314.9 172.5Q314.4 172.5 314 172.6Q313.6 172.8 313.5 173.1Q313.3 173.4 313.3 173.7L313.3 173.7Q313.3 173.9 313.4 174.1Q313.5 174.3 313.8 174.5Q314.0 174.7 314.4 174.9Q314.8 175.0 315.3 175.2L315.3 175.2Q316.1 175.4 316.7 175.7Q317.3 176.0 317.7 176.4Q318.2 176.8 318.4 177.3Q318.6 177.8 318.6 178.4L318.6 178.4Q318.6 179.0 318.3 179.5Q318.1 180.1 317.6 180.4Q317.1 180.8 316.5 181.0Q315.8 181.1 315.0 181.1L315.0 181.1Q314.2 181.1 313.5 180.9Q312.8 180.7 312.2 180.4Q311.6 180.0 311.3 179.3Q310.9 178.7 310.9 177.9L310.9 177.9L313.0 177.9Q313.0 178.3 313.1 178.7Q313.3 179.0 313.5 179.2Q313.8 179.4 314.2 179.5Q314.5 179.6 315.0 179.6L315.0 179.6Q315.5 179.6 315.8 179.4Q316.2 179.3 316.4 179.0Q316.5 178.7 316.5 178.4ZM321.4 179.4L326.4 179.4L326.4 181L321.4 181L321.4 179.4ZM320.0 171.0L322.0 171.0L322.0 181L320.0 181L320.0 171.0Z "/></g><mask id="satori_om-id-2-11-2"><rect x="333" y="168" width="38" height="16" fill="#fff"/></mask><g  ><path fill="#8b949e" d="M340.1 175.2L340.1 175.2L340.1 176.7Q340.1 178.0 339.9 178.8Q339.6 179.7 339.2 180.2Q338.8 180.7 338.2 180.9Q337.7 181.1 336.9 181.1L336.9 181.1Q336.4 181.1 335.9 181.0Q335.4 180.8 335.0 180.5Q334.6 180.2 334.3 179.7Q334.1 179.2 333.9 178.5Q333.8 177.7 333.8 176.7L333.8 176.7L333.8 175.2Q333.8 174.0 334.0 173.2Q334.2 172.4 334.6 171.9Q335.1 171.3 335.6 171.1Q336.2 170.9 336.9 170.9L336.9 170.9Q337.5 170.9 338.0 171.1Q338.5 171.2 338.9 171.5Q339.2 171.8 339.5 172.3Q339.8 172.8 339.9 173.5Q340.1 174.3 340.1 175.2ZM338.8 177.0L338.8 177.0L338.8 175.0Q338.8 174.3 338.7 173.8Q338.6 173.3 338.5 173.0Q338.3 172.6 338.1 172.4Q337.9 172.2 337.6 172.0Q337.3 171.9 336.9 171.9L336.9 171.9Q336.5 171.9 336.1 172.1Q335.8 172.3 335.5 172.6Q335.3 173.0 335.2 173.6Q335.1 174.2 335.1 175.0L335.1 175.0L335.1 177.0Q335.1 177.6 335.1 178.1Q335.2 178.6 335.4 179.0Q335.5 179.4 335.8 179.6Q336.0 179.9 336.3 180.0Q336.6 180.1 336.9 180.1L336.9 180.1Q337.4 180.1 337.8 179.9Q338.1 179.7 338.3 179.4Q338.6 179.0 338.7 178.4Q338.8 177.8 338.8 177.0ZM341.9 180.3L341.9 180.3Q341.9 180.0 342.1 179.8Q342.3 179.6 342.6 179.6L342.6 179.6Q343.0 179.6 343.2 179.8Q343.4 180.0 343.4 180.3L343.4 180.3Q343.4 180.6 343.2 180.9Q343.0 181.1 342.6 181.1L342.6 181.1Q342.3 181.1 342.1 180.9Q341.9 180.6 341.9 180.3ZM350.2 171.0L350.2 171.0L350.3 171.0L350.3 172.1L350.2 172.1Q349.2 172.1 348.6 172.4Q347.9 172.8 347.5 173.3Q347.1 173.8 346.9 174.5Q346.7 175.2 346.7 175.9L346.7 175.9L346.7 177.4Q346.7 178.0 346.9 178.5Q347.1 179.0 347.3 179.4Q347.6 179.7 347.9 179.9Q348.3 180.1 348.7 180.1L348.7 180.1Q349.1 180.1 349.4 179.9Q349.8 179.8 350.0 179.5Q350.3 179.1 350.4 178.7Q350.5 178.3 350.5 177.8L350.5 177.8Q350.5 177.4 350.4 177.0Q350.3 176.5 350.1 176.2Q349.8 175.9 349.5 175.7Q349.2 175.5 348.7 175.5L348.7 175.5Q348.2 175.5 347.7 175.8Q347.3 176.0 347.0 176.4Q346.7 176.9 346.6 177.3L346.6 177.3L346.0 177.3Q346.1 176.6 346.3 176.0Q346.6 175.5 347.0 175.1Q347.4 174.8 347.9 174.6Q348.4 174.5 348.9 174.5L348.9 174.5Q349.6 174.5 350.2 174.8Q350.7 175.0 351.1 175.5Q351.4 176.0 351.6 176.6Q351.8 177.1 351.8 177.8L351.8 177.8Q351.8 178.5 351.6 179.1Q351.4 179.7 351.0 180.2Q350.6 180.6 350.0 180.9Q349.4 181.1 348.7 181.1L348.7 181.1Q347.9 181.1 347.3 180.8Q346.7 180.5 346.3 179.9Q345.9 179.4 345.7 178.7Q345.5 178.0 345.5 177.3L345.5 177.3L345.5 176.7Q345.5 175.7 345.7 174.7Q345.9 173.6 346.4 172.8Q346.9 172.0 347.9 171.5Q348.8 171.0 350.2 171.0ZM355.1 176.2L355.1 175.4L356.0 175.4Q356.7 175.4 357.1 175.2Q357.5 175.0 357.7 174.6Q358.0 174.2 358.0 173.7L358.0 173.7Q358.0 173.1 357.8 172.7Q357.6 172.3 357.2 172.1Q356.8 171.9 356.2 171.9L356.2 171.9Q355.7 171.9 355.3 172.2Q354.9 172.4 354.7 172.7Q354.4 173.1 354.4 173.7L354.4 173.7L353.2 173.7Q353.2 172.9 353.5 172.3Q353.9 171.6 354.6 171.3Q355.3 170.9 356.2 170.9L356.2 170.9Q357.1 170.9 357.8 171.2Q358.5 171.5 358.9 172.2Q359.2 172.8 359.2 173.7L359.2 173.7Q359.2 174.1 359.1 174.5Q358.9 175.0 358.5 175.3Q358.2 175.7 357.6 175.9Q357.0 176.2 356.2 176.2L356.2 176.2L355.1 176.2ZM356.0 176.4L355.1 176.4L355.1 175.7L356.2 175.7Q357.1 175.7 357.8 175.9Q358.4 176.1 358.7 176.5Q359.1 176.9 359.2 177.3Q359.4 177.8 359.4 178.2L359.4 178.2Q359.4 178.9 359.2 179.5Q358.9 180.0 358.5 180.4Q358.1 180.8 357.5 180.9Q356.9 181.1 356.2 181.1L356.2 181.1Q355.6 181.1 355.0 181.0Q354.4 180.8 354.0 180.4Q353.6 180.1 353.3 179.5Q353.1 179.0 353.1 178.4L353.1 178.4L354.3 178.4Q354.3 178.9 354.6 179.3Q354.8 179.7 355.2 179.9Q355.7 180.1 356.2 180.1L356.2 180.1Q356.8 180.1 357.2 179.9Q357.7 179.7 357.9 179.3Q358.1 178.9 358.1 178.3L358.1 178.3Q358.1 177.6 357.9 177.2Q357.6 176.8 357.1 176.6Q356.6 176.4 356.0 176.4L356.0 176.4ZM361.0 173.5L361.0 173.5L361.0 173.0Q361.0 172.4 361.3 171.9Q361.5 171.5 362.0 171.2Q362.4 170.9 363.1 170.9L363.1 170.9Q363.7 170.9 364.1 171.2Q364.6 171.5 364.8 171.9Q365.1 172.4 365.1 173.0L365.1 173.0L365.1 173.5Q365.1 174.0 364.9 174.5Q364.6 175.0 364.2 175.3Q363.7 175.5 363.1 175.5L363.1 175.5Q362.4 175.5 362.0 175.3Q361.5 175.0 361.3 174.5Q361.0 174.0 361.0 173.5ZM362.0 173.0L362.0 173.0L362.0 173.5Q362.0 173.8 362.1 174.1Q362.2 174.4 362.4 174.5Q362.7 174.7 363.1 174.7L363.1 174.7Q363.4 174.7 363.7 174.5Q363.9 174.4 364.0 174.1Q364.1 173.8 364.1 173.5L364.1 173.5L364.1 173.0Q364.1 172.6 364.0 172.4Q363.9 172.1 363.7 171.9Q363.4 171.7 363.1 171.7L363.1 171.7Q362.7 171.7 362.4 171.9Q362.2 172.1 362.1 172.4Q362.0 172.6 362.0 173.0ZM365.9 179.1L365.9 179.1L365.9 178.6Q365.9 178.0 366.1 177.5Q366.4 177.1 366.8 176.8Q367.3 176.5 367.9 176.5L367.9 176.5Q368.5 176.5 369.0 176.8Q369.4 177.1 369.7 177.5Q369.9 178.0 369.9 178.6L369.9 178.6L369.9 179.1Q369.9 179.7 369.7 180.1Q369.5 180.6 369.0 180.9Q368.5 181.1 367.9 181.1L367.9 181.1Q367.3 181.1 366.8 180.9Q366.4 180.6 366.1 180.1Q365.9 179.7 365.9 179.1ZM366.8 178.6L366.8 178.6L366.8 179.1Q366.8 179.4 366.9 179.7Q367.0 180.0 367.3 180.1Q367.5 180.3 367.9 180.3L367.9 180.3Q368.3 180.3 368.5 180.1Q368.8 180.0 368.9 179.7Q369.0 179.4 369.0 179.1L369.0 179.1L369.0 178.6Q369.0 178.2 368.9 178.0Q368.8 177.7 368.5 177.5Q368.3 177.3 367.9 177.3L367.9 177.3Q367.5 177.3 367.3 177.5Q367.0 177.7 366.9 178.0Q366.8 178.2 366.8 178.6ZM367.5 172.0L368.2 172.5L363.4 180.2L362.6 179.8L367.5 172.0Z "/></g></svg>